<svg version="1.1" xmlns="http://www.w3.org/2000/svg" viewBox="0 0 1024 1024" width="1024" height="1024"><path d="M188.06,0.00 L833.44,0.00 C927.27,12.28 993.74,73.71 1016.91,155.25 C1020.61,164.98 1021.35,178.08 1024.00,188.67 L1024.00,837.42 C1022.01,840.39 1022.57,847.25 1021.48,851.25 C1004.17,944.24 935.61,1010.95 837.44,1024.00 L188.00,1024.00 C102.69,1012.17 41.46,959.97 13.88,890.75 C8.01,875.58 1.83,857.45 1.00,836.00 L-0.00,836.00 L-0.00,186.50 C0.05,186.21 0.84,186.79 0.89,186.50 C1.27,184.47 0.61,179.48 1.51,178.75 C10.85,113.38 44.99,69.37 87.25,38.23 C114.16,18.64 147.20,5.34 188.06,0.00 Z" fill="#2378FB" fill-rule="nonzero"/><path d="M508.00,165.35 L516.50,165.35 C549.89,167.29 574.13,193.10 574.72,228.25 L574.66,269.50 L574.66,364.75 L574.76,444.25 L582.25,444.36 L598.50,444.34 L623.50,444.34 L649.00,444.34 L782.00,444.35 L790.00,444.35 C872.04,449.84 873.65,568.13 793.75,577.49 L574.90,577.50 L574.90,578.25 L574.60,583.75 L574.66,670.50 L574.66,711.00 L574.66,711.50 L574.69,760.75 L574.43,804.75 C561.43,876.66 458.39,875.02 449.57,801.25 L449.50,577.97 C376.56,576.72 297.79,578.14 225.75,577.25 C149.95,562.82 153.85,448.39 235.75,444.29 L245.50,444.35 C443.89,444.50 449.10,444.46 449.37,442.75 L449.35,436.00 L449.35,223.25 C452.81,191.03 474.78,167.53 508.00,165.35 Z" fill="#FE7300" fill-rule="nonzero"/><path d="M574.76,444.25 L574.66,364.75 L574.76,444.25 Z" fill="#101010" fill-rule="nonzero"/><path d="M574.69,760.75 L574.66,711.50 L574.69,760.75 Z" fill="#101010" fill-rule="nonzero"/><path d="M574.66,269.50 L574.72,228.25 L574.66,269.50 Z" fill="#101010" fill-rule="nonzero"/><path d="M574.66,711.00 L574.66,670.50 L574.66,711.00 Z" fill="#101010" fill-rule="nonzero"/><path d="M623.50,444.34 L649.00,444.34 L623.50,444.34 Z" fill="#101010" fill-rule="nonzero"/><path d="M582.25,444.36 L598.50,444.34 L582.25,444.36 Z" fill="#101010" fill-rule="nonzero"/><path d="M235.75,444.29 L245.50,444.35 L235.75,444.29 Z" fill="#101010" fill-rule="nonzero"/><path d="M508.00,165.35 L516.50,165.35 L508.00,165.35 Z" fill="#101010" fill-rule="nonzero"/><path d="M782.00,444.35 L790.00,444.35 L782.00,444.35 Z" fill="#101010" fill-rule="nonzero"/><path d="M449.35,436.00 L449.37,442.75 L449.35,436.00 Z" fill="#101010" fill-rule="nonzero"/><path d="M574.90,578.25 L574.60,583.75 L574.90,578.25 Z" fill="#101010" fill-rule="nonzero"/></svg>
