<svg version="1.1" xmlns="http://www.w3.org/2000/svg" viewBox="0 0 1024 1024" width="1024" height="1024"><path d="M164.49,0.75 C163.79,0.86 168.40,1.79 167.50,-0.00 L853.44,0.00 C853.76,1.79 857.49,0.71 859.50,1.00 L865.94,1.00 C866.42,1.78 867.12,2.00 869.06,2.00 C900.39,6.11 926.55,18.55 946.75,32.83 C980.56,57.58 1005.64,88.95 1018.10,134.95 C1018.02,136.49 1018.23,137.08 1019.00,137.56 L1019.00,138.94 C1019.00,140.49 1019.21,141.07 1019.92,141.53 L1021.01,147.94 C1020.84,149.64 1021.09,151.62 1021.99,152.25 C1021.45,155.16 1023.03,158.94 1023.11,161.98 C1023.02,164.32 1023.23,165.00 1024.00,165.00 L1024.00,860.00 C1023.23,860.00 1023.00,860.56 1023.00,862.50 C1023.53,866.72 1021.68,869.71 1021.83,872.75 L1020.97,876.05 L1019.97,883.45 C1019.22,883.92 1019.00,884.51 1019.00,886.06 C1013.24,911.48 1002.29,932.59 988.79,950.75 C964.29,983.19 929.50,1009.54 882.05,1020.18 C880.51,1020.04 879.92,1020.23 879.44,1021.00 C876.38,1020.82 873.17,1021.85 870.75,1022.48 L868.75,1022.48 L862.51,1023.06 C860.18,1023.01 859.50,1023.23 859.50,1024.00 L165.00,1024.00 C165.00,1023.23 164.32,1023.02 161.99,1023.07 C133.18,1020.55 108.48,1011.07 89.75,999.72 C71.35,988.85 56.33,975.94 42.81,960.25 C25.56,940.25 10.11,913.52 4.10,881.57 L3.19,878.25 C2.86,873.26 0.30,867.96 1.00,861.56 C1.00,857.51 0.80,856.50 -0.00,856.50 L-0.00,167.00 C0.79,167.00 1.00,166.04 0.98,162.45 C0.47,158.50 1.71,154.19 2.04,151.75 C2.68,151.18 3.31,149.42 2.93,147.99 L4.06,140.54 C4.79,140.08 4.99,139.50 4.94,137.99 C11.72,108.78 25.90,84.05 41.76,65.25 C66.80,35.30 102.55,10.94 148.91,3.07 L153.25,2.13 C155.60,1.45 161.65,0.76 164.49,0.75 Z" fill="#1F7AFD" fill-rule="nonzero"/><g><path d="M896.50,283.50 L896.50,824.25 C894.00,856.22 868.79,881.26 835.25,882.48 L188.25,882.47 C153.43,880.29 130.85,857.48 127.00,824.25 L127.00,283.50 L896.50,283.50 Z" fill="#FEFEFE" fill-rule="nonzero"/><path d="M368.00,543.50 L837.75,543.75 C856.86,551.02 856.74,577.01 837.27,583.75 L367.50,584.00 C374.03,573.96 374.00,554.11 368.00,543.50 Z" fill="#05AD7B" fill-rule="nonzero"/><path d="M299.75,797.59 L670.00,797.50 C664.20,808.98 666.04,829.07 672.50,837.29 L672.50,838.00 L298.98,838.00 C276.84,832.80 277.32,801.98 299.75,797.59 Z" fill="#7F4BDA" fill-rule="nonzero"/><path d="M496.00,627.49 L836.80,627.75 C857.66,634.07 856.67,663.85 834.89,668.00 L495.50,668.00 C501.37,657.10 502.26,638.68 496.00,627.49 Z" fill="#1F7AFD" fill-rule="nonzero"/><path d="M299.75,713.55 L541.50,713.50 C536.11,726.42 535.57,735.75 539.87,748.75 C540.26,749.95 542.94,753.70 541.44,754.50 L299.75,754.49 C277.05,749.61 276.91,718.35 299.75,713.55 Z" fill="#FDB602" fill-rule="nonzero"/><path d="M609.00,713.50 L831.75,713.51 C855.26,717.23 855.38,750.81 831.75,754.49 L608.17,754.50 L607.69,754.02 C613.44,744.83 614.77,733.79 611.39,720.91 C611.35,720.76 608.36,714.14 609.00,713.50 Z" fill="#FDB602" fill-rule="nonzero"/><g><path d="M284.06,558.15 L283.36,564.49 L239.95,564.52 C238.19,574.26 231.58,580.01 222.75,582.38 L222.49,625.87 C246.21,629.96 245.37,663.20 222.56,667.75 L222.50,711.89 C246.01,715.72 245.36,749.61 222.54,753.75 L222.50,795.67 C247.89,799.77 245.21,838.40 217.09,837.63 C193.04,833.55 192.44,800.75 215.50,795.59 L215.50,753.39 C193.00,748.77 192.87,716.80 215.50,711.75 L215.50,667.45 C193.09,662.31 192.76,631.02 215.46,625.75 L215.50,582.13 C190.46,577.02 193.56,537.00 223.96,540.50 C232.25,542.96 238.04,548.49 239.75,557.48 C240.77,558.50 280.09,556.28 284.06,558.15 Z" fill="#D1D1D3" fill-rule="nonzero"/><path d="M283.36,564.49 L284.06,558.15 C286.87,551.50 292.21,546.18 300.50,545.05 C301.00,545.91 298.20,551.44 297.94,552.58 C295.51,563.12 296.11,568.32 298.89,577.25 C299.23,578.32 301.88,583.33 301.50,583.85 C291.49,583.06 283.94,575.26 283.36,564.49 Z" fill="#05AD7B" fill-rule="nonzero"/></g><path d="M301.25,627.57 L428.00,627.50 C421.53,638.33 422.58,657.47 428.50,668.00 L301.21,668.00 C277.59,664.27 277.80,631.26 301.25,627.57 Z" fill="#1F7AFD" fill-rule="nonzero"/><path d="M757.75,431.58 C759.32,431.29 805.24,431.17 807.32,431.50 C812.98,432.40 817.17,436.91 818.00,442.68 C818.30,444.73 818.26,489.57 817.99,491.25 C817.26,495.96 813.33,500.67 808.78,501.75 C793.92,502.09 771.52,502.20 756.75,501.75 C751.91,499.70 748.23,496.28 747.46,490.51 L747.75,440.75 C749.66,436.37 752.89,432.49 757.75,431.58 Z" fill="#D1D1D3" fill-rule="nonzero"/><path d="M223.79,431.53 C253.57,431.49 254.31,431.66 257.69,438.97 C259.21,442.24 259.36,491.63 257.87,494.37 C253.88,501.66 254.65,501.50 223.75,501.50 C185.49,501.50 188.39,504.44 188.61,465.98 L188.75,440.25 L190.14,437.89 C193.80,431.66 194.27,431.57 223.79,431.53 Z" fill="#D1D1D3" fill-rule="nonzero"/><path d="M311.25,431.53 C312.58,431.32 357.91,431.18 359.96,431.50 C364.29,432.18 369.10,436.16 370.25,440.25 C370.68,441.77 370.72,491.73 370.25,493.33 C368.50,496.87 366.32,499.46 362.91,501.25 C362.91,501.25 311.32,501.97 309.01,501.53 C305.74,500.90 301.18,496.06 300.25,492.75 L299.96,443.38 C300.71,437.38 305.14,432.50 311.25,431.53 Z" fill="#D1D1D3" fill-rule="nonzero"/><path d="M448.00,431.63 C484.77,431.80 482.50,429.48 482.50,467.00 C482.50,493.51 482.49,493.58 479.17,497.46 C475.55,501.68 476.99,501.50 447.14,501.49 C409.03,501.47 412.00,504.43 412.00,466.44 L412.01,441.25 L413.19,438.75 C416.57,431.59 417.12,431.48 448.00,431.63 Z" fill="#D1D1D3" fill-rule="nonzero"/><path d="M534.75,431.62 C536.74,431.32 581.17,431.15 583.37,431.50 C587.64,432.18 592.58,436.21 593.75,440.25 L594.04,491.25 C593.03,495.94 589.94,499.71 585.25,501.49 L532.45,501.50 C529.53,500.94 524.62,495.90 523.75,492.75 C523.55,492.02 522.98,447.23 523.46,443.41 C524.23,437.20 528.60,432.56 534.75,431.62 Z" fill="#D1D1D3" fill-rule="nonzero"/><path d="M670.86,431.52 C708.50,431.49 705.98,428.96 705.98,466.75 L705.99,492.25 L704.82,494.77 C703.56,497.47 701.25,499.73 698.64,500.83 C697.36,501.36 691.71,501.50 671.00,501.50 C633.02,501.50 636.02,504.48 636.02,466.75 C636.02,428.90 633.40,431.56 670.86,431.52 Z" fill="#D1D1D3" fill-rule="nonzero"/><path d="M309.75,330.09 C311.35,329.80 358.35,329.71 360.25,330.01 C365.31,330.79 369.71,335.19 370.49,340.25 L370.50,390.30 C369.78,393.93 365.13,398.80 361.45,399.50 C361.34,399.52 309.23,399.55 308.96,399.50 C306.03,398.94 301.14,393.81 300.25,390.75 C300.03,389.98 299.46,345.29 299.96,341.38 C300.64,336.12 304.54,331.04 309.75,330.09 Z" fill="#D1D1D3" fill-rule="nonzero"/><path d="M421.25,329.97 L473.75,330.25 C478.17,332.06 480.42,334.86 482.25,339.25 C482.43,339.93 483.03,385.18 482.54,388.61 C481.89,393.22 477.32,398.77 473.18,399.50 C473.14,399.51 421.06,399.51 420.99,399.50 C417.20,398.81 412.76,393.93 412.02,390.25 C411.90,389.63 411.69,341.26 412.00,339.47 C412.68,335.59 417.35,330.75 421.25,329.97 Z" fill="#D1D1D3" fill-rule="nonzero"/><path d="M198.25,330.04 L249.25,330.01 C254.51,331.59 258.30,335.68 259.04,341.38 C259.55,345.35 259.00,389.85 258.75,390.75 C257.86,393.91 252.99,398.94 250.05,399.50 C250.01,399.51 197.40,399.50 197.39,399.50 C193.81,398.20 189.29,394.34 188.50,389.95 C188.50,389.95 188.40,341.05 188.50,340.37 C189.15,335.82 193.48,330.88 198.25,330.04 Z" fill="#D1D1D3" fill-rule="nonzero"/><path d="M757.25,330.10 C759.12,329.75 805.54,329.66 807.75,330.01 C813.11,330.84 817.22,335.27 818.00,340.68 C818.30,342.73 818.26,387.57 817.99,389.25 C817.34,393.46 812.77,398.79 809.04,399.50 C809.04,399.50 757.13,399.53 756.97,399.50 C753.45,398.89 748.73,394.25 747.75,390.75 C747.56,390.06 746.99,345.22 747.46,341.38 C748.13,336.01 752.01,331.08 757.25,330.10 Z" fill="#D1D1D3" fill-rule="nonzero"/><path d="M533.25,330.10 C535.12,329.75 581.54,329.66 583.75,330.01 C589.11,330.84 593.22,335.27 594.00,340.68 C594.16,341.79 594.25,387.39 594.00,389.13 C593.44,393.05 588.92,398.76 585.04,399.50 C585.04,399.50 533.13,399.53 532.97,399.50 C528.61,398.74 524.21,393.51 523.50,388.96 C523.27,387.50 523.34,342.31 523.50,341.18 C524.27,335.80 528.23,331.04 533.25,330.10 Z" fill="#D1D1D3" fill-rule="nonzero"/><path d="M645.25,330.00 L697.83,330.25 C701.62,332.02 703.98,334.38 705.75,338.17 C706.17,339.60 706.17,389.90 705.75,391.33 C704.00,394.87 701.82,397.46 698.41,399.25 C697.09,399.67 644.91,399.67 643.59,399.25 C640.31,397.47 638.13,395.11 636.25,391.75 L635.97,339.02 C637.71,334.61 640.51,331.39 645.25,330.00 Z" fill="#D1D1D3" fill-rule="nonzero"/><path d="M739.00,797.50 L832.84,797.50 C854.00,801.83 855.08,831.30 834.75,837.75 L736.00,838.02 L736.00,837.46 C742.79,828.61 744.95,809.49 739.00,797.50 Z" fill="#7F4BDA" fill-rule="nonzero"/><path d="M493.13,650.26 C487.16,686.78 439.32,687.37 431.79,651.75 C428.28,604.84 494.01,602.69 493.13,650.26 Z" fill="#1F7AFD" fill-rule="nonzero"/><path d="M606.10,730.75 C606.15,775.88 543.88,775.67 544.39,730.25 C549.94,692.39 600.95,692.75 606.10,730.75 Z" fill="#FDB602" fill-rule="nonzero"/><path d="M328.75,532.55 C376.56,527.34 377.62,596.82 331.05,594.50 C296.16,588.49 294.95,540.74 328.75,532.55 Z" fill="#05AD7B" fill-rule="nonzero"/><path d="M701.25,783.83 L707.25,783.66 C742.35,787.76 744.71,836.38 711.25,845.62 C666.33,851.51 660.87,789.21 701.25,783.83 Z" fill="#7F4BDA" fill-rule="nonzero"/><g><path d="M243.50,174.00 L243.50,211.25 C248.89,236.07 284.28,235.14 287.03,207.75 L287.03,174.00 L407.63,174.01 C407.40,185.66 407.29,200.38 408.04,210.75 C413.18,236.14 448.12,234.91 451.50,208.75 L451.50,174.00 L572.50,174.00 L572.50,210.37 C576.86,235.71 613.05,235.62 616.00,208.25 L616.00,174.00 L737.00,174.00 C738.18,201.38 731.06,220.49 753.03,228.75 C768.41,231.24 779.00,221.85 780.50,208.75 L780.50,174.00 L834.25,174.00 C869.48,175.38 892.19,197.96 896.50,230.23 L896.50,283.50 L127.00,283.50 L127.00,231.75 C129.49,199.96 154.08,176.31 186.25,174.00 L243.50,174.00 Z" fill="#073786" fill-rule="nonzero"/><path d="M451.50,174.00 L451.50,208.75 C448.12,234.91 413.18,236.14 408.04,210.75 C407.29,200.38 407.40,185.66 407.63,174.01 C408.35,165.77 407.97,151.08 407.91,143.75 C413.05,128.44 433.57,121.62 445.69,134.75 C454.13,143.88 450.93,157.25 451.50,174.00 Z" fill="#FEFEFE" fill-rule="nonzero"/><path d="M616.00,174.00 L616.00,208.25 C613.05,235.62 576.86,235.71 572.50,210.37 L572.50,174.00 L572.50,145.75 C577.76,121.12 613.21,121.41 616.00,148.68 L616.00,174.00 Z" fill="#FEFEFE" fill-rule="nonzero"/><path d="M780.50,174.00 L780.50,208.75 C779.00,221.85 768.41,231.24 753.03,228.75 C731.06,220.49 738.18,201.38 737.00,174.00 L737.00,147.04 C740.89,121.44 776.33,121.40 780.50,146.75 L780.50,174.00 Z" fill="#FEFEFE" fill-rule="nonzero"/><path d="M287.03,174.00 L287.03,207.75 C284.28,235.14 248.89,236.07 243.50,211.25 L243.50,174.00 L243.50,146.54 C247.95,121.68 281.59,121.75 286.31,145.25 L287.03,174.00 Z" fill="#FEFEFE" fill-rule="nonzero"/></g></g><path d="M707.25,783.66 L701.25,783.83 L707.25,783.66 Z" fill="#1F7AFD" fill-rule="nonzero"/><path d="M1021.99,152.25 C1021.09,151.62 1020.84,149.64 1021.01,147.94 C1021.78,148.42 1022.00,149.39 1021.99,152.25 Z" fill="#D1D1D3" fill-rule="nonzero"/><path d="M153.25,2.13 L148.91,3.07 C148.94,1.58 151.83,1.95 153.25,2.13 Z" fill="#D1D1D3" fill-rule="nonzero"/><path d="M2.93,147.99 C3.31,149.42 2.68,151.18 2.04,151.75 C2.01,148.84 2.21,148.00 2.93,147.99 Z" fill="#D1D1D3" fill-rule="nonzero"/><path d="M869.06,2.00 C867.12,2.00 866.42,1.78 865.94,1.00 C867.88,1.00 868.58,1.23 869.06,2.00 Z" fill="#D1D1D3" fill-rule="nonzero"/><path d="M4.94,137.99 C4.99,139.50 4.79,140.08 4.06,140.54 C4.25,139.75 3.24,137.40 4.94,137.99 Z" fill="#D1D1D3" fill-rule="nonzero"/><path d="M1021.83,872.75 C1021.96,874.84 1021.77,875.58 1020.97,876.05 L1021.83,872.75 Z" fill="#D1D1D3" fill-rule="nonzero"/><path d="M4.10,881.57 C3.25,881.08 3.04,880.34 3.19,878.25 L4.10,881.57 Z" fill="#D1D1D3" fill-rule="nonzero"/><path d="M882.05,1020.18 C882.01,1020.82 881.42,1021.00 879.44,1021.00 C879.92,1020.23 880.51,1020.04 882.05,1020.18 Z" fill="#D1D1D3" fill-rule="nonzero"/><path d="M1019.00,137.56 C1018.23,137.08 1018.02,136.49 1018.10,134.95 C1018.80,135.42 1019.00,136.01 1019.00,137.56 Z" fill="#D1D1D3" fill-rule="nonzero"/><path d="M1019.92,141.53 C1019.21,141.07 1019.00,140.49 1019.00,138.94 C1019.77,139.42 1019.98,140.00 1019.92,141.53 Z" fill="#D1D1D3" fill-rule="nonzero"/><path d="M1019.97,883.45 C1019.99,884.99 1019.77,885.58 1019.00,886.06 C1019.00,884.51 1019.22,883.92 1019.97,883.45 Z" fill="#D1D1D3" fill-rule="nonzero"/><path d="M870.75,1022.48 L868.75,1022.48 L870.75,1022.48 Z" fill="#D1D1D3" fill-rule="nonzero"/><path d="M853.44,0.00 L859.50,-0.00 L859.50,1.00 C857.49,0.71 853.76,1.79 853.44,0.00 Z" fill="#D1D1D3" fill-rule="nonzero"/><path d="M0.00,860.94 L-0.00,856.50 C0.80,856.50 1.00,857.51 1.00,861.56 L0.00,860.94 Z" fill="#D1D1D3" fill-rule="nonzero"/><path d="M0.98,162.45 C1.00,166.04 0.79,167.00 -0.00,167.00 L0.00,163.06 L0.98,162.45 Z" fill="#D1D1D3" fill-rule="nonzero"/><path d="M164.50,-0.00 L167.50,-0.00 C168.40,1.79 163.79,0.86 164.49,0.75 L164.50,-0.00 Z" fill="#D1D1D3" fill-rule="nonzero"/><path d="M1024.00,162.00 L1024.00,165.00 C1023.23,165.00 1023.02,164.32 1023.11,161.98 L1024.00,162.00 Z" fill="#D1D1D3" fill-rule="nonzero"/><path d="M165.00,1024.00 L162.00,1024.00 L161.99,1023.07 C164.32,1023.02 165.00,1023.23 165.00,1024.00 Z" fill="#D1D1D3" fill-rule="nonzero"/><path d="M862.51,1023.06 L862.50,1024.00 L859.50,1024.00 C859.50,1023.23 860.18,1023.01 862.51,1023.06 Z" fill="#D1D1D3" fill-rule="nonzero"/><path d="M1023.00,862.50 C1023.00,860.56 1023.23,860.00 1024.00,860.00 L1024.00,862.50 L1023.00,862.50 Z" fill="#D1D1D3" fill-rule="nonzero"/></svg>
