<svg version="1.1" xmlns="http://www.w3.org/2000/svg" viewBox="0 0 1024 1024" width="1024" height="1024"><path d="M177.99,0.94 C179.58,1.23 181.65,0.87 182.25,0.01 L841.94,0.00 C842.42,0.78 843.22,1.00 845.50,1.00 C851.41,1.07 857.24,2.48 861.75,3.11 L865.04,4.00 C869.46,4.63 875.30,6.05 878.75,7.11 L880.96,8.10 C920.13,19.22 950.83,41.38 974.43,68.25 C994.41,90.92 1011.01,119.78 1019.10,154.96 C1019.02,156.49 1019.20,157.07 1019.90,157.53 L1021.00,163.94 C1020.84,165.62 1021.13,167.64 1021.94,168.23 L1022.92,178.51 C1023.48,179.03 1022.05,182.21 1024.00,181.50 L1024.00,842.00 C1023.23,842.00 1023.00,842.80 1023.00,845.56 L1022.91,849.75 L1021.90,852.97 C1020.69,866.71 1016.65,879.09 1012.93,890.75 C994.72,941.40 955.22,984.20 908.25,1005.87 C899.63,1009.69 890.63,1013.48 881.02,1016.07 C879.50,1016.02 878.92,1016.22 878.45,1016.97 L870.25,1018.94 L866.75,1019.59 C864.62,1020.66 857.70,1021.51 854.72,1022.00 L851.75,1022.45 L846.01,1023.05 C843.68,1023.01 843.00,1023.23 843.00,1024.00 L182.56,1024.00 C182.08,1023.23 181.28,1023.00 179.00,1023.00 L174.75,1022.99 C174.14,1022.01 171.60,1021.78 169.98,1022.09 C136.78,1017.09 109.90,1005.18 87.25,989.33 C64.03,973.36 43.07,951.60 27.85,926.25 C16.06,906.61 5.67,882.05 2.00,853.00 L1.35,852.35 L1.09,848.75 L1.00,843.56 C1.00,840.41 0.78,839.50 -0.00,839.50 L-0.00,184.00 C0.78,184.00 1.00,182.97 1.00,179.44 L2.02,168.25 C2.87,167.55 3.16,165.92 3.00,164.00 L3.00,161.56 C3.77,161.08 4.00,160.49 4.00,158.94 L4.00,157.06 C4.78,156.58 4.98,155.99 4.93,154.45 C6.95,145.35 9.87,136.03 13.00,127.94 L13.00,127.58 C23.75,100.73 40.02,76.89 58.34,58.75 L60.75,56.34 C85.38,32.63 117.60,11.72 158.90,4.08 L162.25,3.11 L177.99,0.94 Z" fill="#1E78FC" fill-rule="nonzero"/><g><path d="M821.50,386.50 L821.50,553.15 C719.57,474.01 586.31,517.80 538.35,615.25 C537.69,604.43 537.97,587.39 538.17,577.75 C535.03,572.95 532.03,569.42 525.75,568.53 C523.86,568.25 465.48,568.21 463.21,568.50 C456.41,569.38 451.45,574.01 450.50,580.68 C450.31,582.00 450.32,641.54 450.50,642.82 C451.23,647.91 455.72,653.77 460.75,654.65 L524.03,655.15 C521.52,665.85 519.28,678.70 518.93,692.08 L467.75,692.08 C462.25,693.02 457.83,697.93 457.00,703.68 C456.82,704.95 456.82,765.55 457.00,766.82 C457.93,773.25 462.73,777.52 468.32,778.31 C490.02,778.59 514.37,778.70 535.18,778.25 C547.55,805.19 566.79,828.96 589.25,846.98 L219.75,846.94 C178.43,838.08 152.81,813.12 148.01,768.25 C148.27,642.35 147.37,512.27 148.58,386.50 L821.50,386.50 Z" fill="#FEFEFD" fill-rule="nonzero"/><path d="M339.75,692.03 C342.26,691.59 407.40,692.13 407.83,692.25 C412.93,694.84 416.21,697.87 417.00,704.55 C417.25,706.70 417.16,765.74 417.00,766.82 C416.17,772.59 411.65,777.61 405.96,778.50 C405.71,778.54 340.29,778.54 340.04,778.50 C334.76,777.67 329.84,773.11 329.00,767.82 C328.81,766.62 328.87,702.81 329.00,702.16 C330.67,697.26 334.19,692.98 339.75,692.03 Z" fill="#CECECF" fill-rule="nonzero"/><path d="M340.75,568.57 L404.82,568.50 C410.96,569.59 414.50,572.93 416.75,578.25 C416.97,598.09 417.30,625.47 416.75,645.25 C415.76,648.84 410.82,653.77 407.25,654.75 C406.64,654.92 345.24,655.58 340.87,655.03 C335.54,654.37 329.87,649.88 328.97,644.50 C328.36,640.82 329.09,578.33 329.25,577.75 C330.56,573.09 335.91,569.33 340.75,568.57 Z" fill="#CECECF" fill-rule="nonzero"/><path d="M211.75,692.07 C213.50,691.79 275.08,691.68 277.32,692.00 C282.38,692.73 287.55,697.07 288.48,701.75 C288.63,702.50 288.83,767.32 288.50,769.04 C287.87,772.35 282.78,777.28 279.25,778.25 C278.47,778.47 216.88,779.12 212.46,778.53 C207.46,777.86 201.94,773.58 201.00,768.89 L201.00,701.70 C202.73,696.82 206.16,692.97 211.75,692.07 Z" fill="#CECECF" fill-rule="nonzero"/><path d="M214.25,568.62 C217.70,568.25 274.05,568.10 276.82,568.50 C281.98,569.24 287.74,574.00 288.50,578.32 C288.64,579.09 288.55,644.60 288.50,644.88 C287.85,648.47 282.77,653.74 279.25,654.75 L212.48,655.03 C206.62,653.96 202.77,650.55 201.00,645.39 L201.02,578.25 C203.33,572.01 206.77,569.42 214.25,568.62 Z" fill="#CECECF" fill-rule="nonzero"/><path d="M466.75,445.52 L535.32,445.50 C540.14,447.16 544.12,450.65 544.99,456.25 L544.98,521.25 C543.18,526.52 538.99,530.77 533.15,531.53 C528.64,532.11 467.01,531.46 466.25,531.25 C461.74,529.98 457.70,524.70 457.00,519.82 C456.81,518.53 456.81,458.51 457.00,457.18 C457.72,452.10 462.04,446.46 466.75,445.52 Z" fill="#CECECF" fill-rule="nonzero"/><path d="M338.75,445.51 L407.03,445.50 C410.57,446.12 415.79,451.22 416.75,454.75 C416.89,455.26 417.57,515.53 417.04,519.49 C416.18,525.94 411.15,530.71 405.13,531.50 L341.25,531.49 C334.42,530.90 330.97,526.84 329.00,521.41 C328.85,520.65 328.83,457.25 329.00,456.18 C329.77,451.38 334.13,446.40 338.75,445.51 Z" fill="#CECECF" fill-rule="nonzero"/><path d="M210.25,445.54 C210.65,445.45 277.19,445.17 279.03,445.50 C282.63,446.14 287.84,451.32 288.50,454.99 C288.51,455.05 288.51,521.45 288.50,521.51 C287.66,526.18 281.64,530.89 277.14,531.53 C273.27,532.08 210.82,531.40 210.25,531.25 C205.54,529.27 202.36,526.46 201.00,521.53 L201.01,455.25 C201.75,451.42 206.55,446.32 210.25,445.54 Z" fill="#CECECF" fill-rule="nonzero"/><g><path d="M821.50,553.15 C855.47,581.50 881.29,620.06 889.54,674.75 C909.85,848.67 720.36,948.26 589.25,846.98 C566.79,828.96 547.55,805.19 535.18,778.25 C524.85,754.83 517.07,725.56 518.93,692.08 C519.28,678.70 521.52,665.85 524.03,655.15 C527.37,640.95 533.26,626.66 538.35,615.25 C586.31,517.80 719.57,474.01 821.50,553.15 Z" fill="#123269" fill-rule="nonzero"/><g><path d="M843.01,728.75 C819.17,847.28 668.88,882.57 592.88,785.93 C525.55,693.71 584.28,572.68 687.42,559.97 C782.88,548.20 861.55,632.39 843.01,728.75 Z" fill="#FEFEFD" fill-rule="nonzero"/><path d="M714.49,608.25 L714.50,683.53 C720.09,687.94 724.94,693.70 725.47,703.19 C733.31,709.91 788.57,744.28 792.00,748.67 C798.77,757.36 791.50,771.40 779.64,769.61 C774.82,768.88 714.67,725.88 712.90,725.50 C681.51,736.68 665.39,699.53 688.50,683.14 L688.50,607.97 C692.27,594.61 710.81,595.17 714.49,608.25 Z" fill="#1E78FC" fill-rule="nonzero"/></g><path d="M538.35,615.25 C533.26,626.66 527.37,640.95 524.03,655.15 L460.75,654.65 C455.72,653.77 451.23,647.91 450.50,642.82 C450.32,641.54 450.31,582.00 450.50,580.68 C451.45,574.01 456.41,569.38 463.21,568.50 C465.48,568.21 523.86,568.25 525.75,568.53 C532.03,569.42 535.03,572.95 538.17,577.75 C537.97,587.39 537.69,604.43 538.35,615.25 Z" fill="#1E78FC" fill-rule="nonzero"/><path d="M518.93,692.08 C517.07,725.56 524.85,754.83 535.18,778.25 C514.37,778.70 490.02,778.59 468.32,778.31 C462.73,777.52 457.93,773.25 457.00,766.82 C456.82,765.55 456.82,704.95 457.00,703.68 C457.83,697.93 462.25,693.02 467.75,692.08 L518.93,692.08 Z" fill="#CECECF" fill-rule="nonzero"/></g><g><path d="M289.75,207.50 L289.75,248.25 C252.15,275.80 280.26,337.52 329.44,322.43 C359.54,310.86 368.10,268.58 339.52,248.25 L339.75,207.50 L631.75,207.50 L631.75,249.00 L630.01,249.00 C601.36,273.54 614.38,318.36 650.19,324.50 C697.13,329.99 715.52,271.22 681.49,248.50 L681.75,207.50 L749.90,207.50 C788.72,211.62 818.74,241.22 821.50,281.11 L821.50,386.50 L148.58,386.50 L148.58,281.13 C151.39,240.98 181.30,212.03 220.25,207.50 L289.75,207.50 Z" fill="#F54B48" fill-rule="nonzero"/><g><path d="M631.75,207.50 L631.99,169.75 C639.63,143.56 674.81,144.03 681.48,170.75 L681.75,207.50 L681.49,248.50 L681.49,277.75 C678.21,306.17 639.18,308.10 631.95,281.25 L631.75,249.00 L631.75,207.50 Z" fill="#123269" fill-rule="nonzero"/><path d="M631.75,249.00 L631.95,281.25 C639.18,308.10 678.21,306.17 681.49,277.75 L681.49,248.50 C715.52,271.22 697.13,329.99 650.19,324.50 C614.38,318.36 601.36,273.54 630.01,249.00 L631.75,249.00 Z" fill="#FEFEFD" fill-rule="nonzero"/></g><g><path d="M289.75,207.50 L289.99,169.75 C297.95,143.98 332.16,143.81 339.48,170.25 L339.75,207.50 L339.52,248.25 L339.52,277.75 C335.83,306.17 298.12,308.06 290.05,281.75 L289.75,248.25 L289.75,207.50 Z" fill="#123269" fill-rule="nonzero"/><path d="M289.75,248.25 L290.05,281.75 C298.12,308.06 335.83,306.17 339.52,277.75 L339.52,248.25 C368.10,268.58 359.54,310.86 329.44,322.43 C280.26,337.52 252.15,275.80 289.75,248.25 Z" fill="#FEFEFD" fill-rule="nonzero"/></g></g></g><path d="M174.75,1022.99 C171.07,1023.00 170.00,1022.80 169.98,1022.09 C171.60,1021.78 174.14,1022.01 174.75,1022.99 Z" fill="#CECECF" fill-rule="nonzero"/><path d="M3.00,164.00 C3.16,165.92 2.87,167.55 2.02,168.25 C2.00,164.96 2.23,164.00 3.00,164.00 Z" fill="#CECECF" fill-rule="nonzero"/><path d="M1021.94,168.23 C1021.13,167.64 1020.84,165.62 1021.00,163.94 C1021.77,164.42 1021.99,165.39 1021.94,168.23 Z" fill="#CECECF" fill-rule="nonzero"/><path d="M1022.91,849.75 C1022.98,852.27 1022.75,852.99 1021.90,852.97 L1022.91,849.75 Z" fill="#CECECF" fill-rule="nonzero"/><path d="M870.25,1018.94 C870.05,1020.07 867.38,1020.47 866.75,1019.59 L870.25,1018.94 Z" fill="#CECECF" fill-rule="nonzero"/><path d="M162.25,3.11 L158.90,4.08 C158.92,2.84 160.97,2.83 162.25,3.11 Z" fill="#CECECF" fill-rule="nonzero"/><path d="M865.04,4.00 L861.75,3.11 C863.84,3.03 864.58,3.22 865.04,4.00 Z" fill="#CECECF" fill-rule="nonzero"/><path d="M881.02,1016.07 C881.54,1017.74 879.37,1016.75 878.45,1016.97 C878.92,1016.22 879.50,1016.02 881.02,1016.07 Z" fill="#CECECF" fill-rule="nonzero"/><path d="M854.72,1022.00 C854.60,1022.81 852.28,1023.71 851.75,1022.45 L854.72,1022.00 Z" fill="#CECECF" fill-rule="nonzero"/><path d="M60.75,56.34 L58.34,58.75 L60.75,56.34 Z" fill="#CECECF" fill-rule="nonzero"/><path d="M4.93,154.45 C4.98,155.99 4.78,156.58 4.00,157.06 C4.00,155.51 4.21,154.92 4.93,154.45 Z" fill="#CECECF" fill-rule="nonzero"/><path d="M1019.90,157.53 C1019.20,157.07 1019.02,156.49 1019.10,154.96 C1019.80,155.42 1019.98,156.00 1019.90,157.53 Z" fill="#CECECF" fill-rule="nonzero"/><path d="M4.00,158.94 C4.00,160.49 3.77,161.08 3.00,161.56 C3.00,160.01 3.22,159.42 4.00,158.94 Z" fill="#CECECF" fill-rule="nonzero"/><path d="M880.96,8.10 L878.75,7.11 C879.71,7.11 881.60,6.30 880.96,8.10 Z" fill="#CECECF" fill-rule="nonzero"/><path d="M1.35,852.35 L1.09,848.75 L1.35,852.35 Z" fill="#CECECF" fill-rule="nonzero"/><path d="M2.00,853.00 L1.35,852.35 L2.00,853.00 Z" fill="#CECECF" fill-rule="nonzero"/><path d="M1.00,179.44 C1.00,182.97 0.78,184.00 -0.00,184.00 L-0.00,180.06 L1.00,179.44 Z" fill="#CECECF" fill-rule="nonzero"/><path d="M0.00,842.94 L-0.00,839.50 C0.78,839.50 1.00,840.41 1.00,843.56 L0.00,842.94 Z" fill="#CECECF" fill-rule="nonzero"/><path d="M177.99,0.94 L178.00,-0.00 L182.25,0.01 C181.65,0.87 179.58,1.23 177.99,0.94 Z" fill="#CECECF" fill-rule="nonzero"/><path d="M841.94,0.00 L845.50,-0.00 L845.50,1.00 C843.22,1.00 842.42,0.78 841.94,0.00 Z" fill="#CECECF" fill-rule="nonzero"/><path d="M1023.00,845.56 C1023.00,842.80 1023.23,842.00 1024.00,842.00 L1024.00,844.94 L1023.00,845.56 Z" fill="#CECECF" fill-rule="nonzero"/><path d="M182.56,1024.00 L179.00,1024.00 L179.00,1023.00 C181.28,1023.00 182.08,1023.23 182.56,1024.00 Z" fill="#CECECF" fill-rule="nonzero"/><path d="M1024.00,178.50 L1024.00,181.50 C1022.05,182.21 1023.48,179.03 1022.92,178.51 L1024.00,178.50 Z" fill="#CECECF" fill-rule="nonzero"/><path d="M846.01,1023.05 L846.00,1024.00 L843.00,1024.00 C843.00,1023.23 843.68,1023.01 846.01,1023.05 Z" fill="#CECECF" fill-rule="nonzero"/></svg>
