<svg version="1.1" xmlns="http://www.w3.org/2000/svg" viewBox="0 0 1024 1024" width="1024" height="1024"><path d="M142.00,1.00 C144.28,1.00 145.08,0.78 145.56,0.00 L880.00,-0.00 C880.00,0.78 880.58,1.00 882.56,1.00 C901.41,2.83 919.12,8.63 932.44,15.25 C967.75,32.45 995.36,61.36 1011.13,98.25 C1015.11,106.37 1018.97,119.42 1021.02,129.75 C1020.84,131.51 1021.05,133.60 1021.99,134.25 L1021.97,136.00 L1022.52,138.75 L1023.05,143.00 C1023.01,145.32 1023.23,146.00 1024.00,146.00 L1024.00,879.00 C1022.19,878.60 1023.30,879.92 1023.00,881.00 C1017.23,930.21 993.01,965.95 962.37,990.20 C945.07,1004.03 922.21,1015.77 895.56,1021.00 C893.62,1021.00 892.93,1021.21 892.46,1021.95 L882.55,1023.02 C880.19,1023.01 879.50,1023.23 879.50,1024.00 L145.06,1024.00 C144.58,1023.23 143.89,1022.99 142.00,1022.95 C94.71,1017.88 59.78,994.00 34.83,963.25 C18.19,942.49 4.05,913.87 0.72,879.63 C0.99,876.76 0.84,876.00 -0.00,876.00 L-0.00,147.00 C0.78,147.00 1.00,146.33 1.00,144.00 C7.00,91.04 32.50,56.57 65.75,30.91 C82.30,18.59 103.68,7.42 128.95,2.96 C130.50,3.26 132.15,2.70 132.75,2.04 L136.25,1.46 C136.79,2.85 138.82,1.39 139.25,0.99 L142.00,1.00 Z" fill="#1F76FB" fill-rule="nonzero"/><g><path d="M910.53,373.50 L910.53,747.89 C905.32,800.22 866.26,840.45 810.75,842.60 L207.75,842.08 C155.72,835.76 121.22,799.34 115.42,746.75 L115.42,373.50 L910.53,373.50 Z" fill="#FEFEFE" fill-rule="nonzero"/><path d="M171.25,675.55 L226.46,675.50 C234.01,677.38 238.97,682.98 240.53,690.35 L240.25,746.25 C237.86,753.03 233.60,757.34 226.92,759.52 L169.75,759.25 C162.92,756.39 158.19,750.62 157.43,742.75 C157.00,738.30 157.51,689.78 157.75,688.75 C159.08,683.12 165.73,676.58 171.25,675.55 Z" fill="#DCDCDD" fill-rule="nonzero"/><path d="M172.75,553.53 C175.89,553.04 225.94,553.43 227.25,553.75 C233.96,556.29 239.63,561.99 240.53,569.29 C241.04,573.42 240.49,623.81 240.25,624.75 C237.74,631.28 233.57,635.39 226.95,637.53 L169.75,637.25 C163.75,634.57 160.09,630.58 157.75,624.25 C157.32,622.44 157.31,569.11 157.75,567.25 C160.15,560.56 165.27,554.67 172.75,553.53 Z" fill="#DCDCDD" fill-rule="nonzero"/><path d="M483.25,675.57 C484.75,675.30 535.58,675.18 537.82,675.50 C545.80,676.63 551.63,683.89 552.54,691.93 C553.01,696.07 552.51,744.54 552.25,745.75 C550.98,751.60 544.49,758.58 539.11,759.50 L482.75,759.49 C476.59,757.47 472.84,753.17 470.25,747.25 C470.05,746.48 469.43,693.16 469.98,689.29 C470.77,683.72 477.39,676.63 483.25,675.57 Z" fill="#DCDCDD" fill-rule="nonzero"/><path d="M484.75,553.52 L538.75,553.75 C545.92,556.28 551.56,561.91 552.54,569.90 C553.01,573.69 552.47,622.72 552.25,623.75 C551.03,629.39 545.17,635.85 539.75,637.25 L483.35,637.52 C477.52,635.50 472.53,631.65 470.25,625.25 L469.98,567.35 C472.18,560.65 477.05,555.20 484.75,553.52 Z" fill="#DCDCDD" fill-rule="nonzero"/><path d="M277.25,553.57 C278.87,553.31 326.49,553.11 329.25,553.49 C335.70,554.37 342.73,560.76 344.25,567.75 C344.53,569.03 344.99,615.72 344.56,620.25 C343.81,628.30 338.55,636.24 330.46,637.50 C330.21,637.54 276.29,637.54 276.04,637.50 C269.79,636.52 263.60,629.95 262.25,623.75 L261.94,571.25 C262.41,562.53 268.85,554.89 277.25,553.57 Z" fill="#DCDCDD" fill-rule="nonzero"/><path d="M797.25,675.51 L852.46,675.50 C860.16,677.51 864.90,682.96 866.53,690.98 L866.25,746.25 C863.89,752.94 859.39,757.43 853.11,759.50 L797.25,759.50 C791.22,757.48 787.37,753.48 784.75,747.75 L784.47,689.12 C786.24,682.26 790.95,677.82 797.25,675.51 Z" fill="#DCDCDD" fill-rule="nonzero"/><path d="M275.75,675.58 L330.46,675.50 C338.89,677.70 343.72,683.75 344.56,692.75 C344.99,697.31 344.53,744.47 344.25,745.75 C343.01,751.45 336.75,758.46 331.34,759.50 L275.16,759.50 C269.04,757.40 265.35,753.22 262.75,747.25 L262.47,689.97 C264.01,682.54 268.83,677.55 275.75,675.58 Z" fill="#DCDCDD" fill-rule="nonzero"/><path d="M799.25,553.55 C802.37,553.06 851.92,553.42 853.25,553.75 C859.96,556.29 865.63,561.99 866.53,569.29 C867.05,573.45 866.50,623.75 866.25,624.75 C863.71,631.23 859.39,635.71 852.46,637.50 L797.25,637.50 C790.80,635.28 786.26,630.77 784.47,623.88 L784.75,565.75 C787.23,559.93 792.52,554.61 799.25,553.55 Z" fill="#DCDCDD" fill-rule="nonzero"/><path d="M588.75,675.53 C591.60,675.04 643.82,675.49 644.75,675.75 C650.75,678.40 654.36,682.49 656.75,688.75 L657.07,743.51 C655.52,751.60 651.03,757.10 643.75,759.50 L588.68,759.50 C581.66,757.83 577.84,752.69 575.25,746.27 C575.08,745.54 574.55,696.90 574.94,692.75 C575.68,684.80 580.92,676.87 588.75,675.53 Z" fill="#DCDCDD" fill-rule="nonzero"/><path d="M798.75,432.55 C802.30,432.00 851.94,432.31 853.75,432.75 C860.49,435.23 864.54,439.24 866.75,446.25 C867.24,448.48 867.23,500.75 866.75,502.75 C864.13,509.39 859.99,514.20 852.86,516.04 L796.75,515.75 C790.96,513.06 787.12,509.35 784.75,503.25 C784.30,501.47 784.30,447.64 784.75,445.75 C787.22,439.40 791.55,433.69 798.75,432.55 Z" fill="#DCDCDD" fill-rule="nonzero"/><path d="M589.75,553.57 L641.48,553.50 C649.49,555.16 654.08,559.97 656.75,567.25 C657.17,569.10 657.18,621.66 656.75,623.75 C655.61,629.34 649.85,635.82 644.75,637.25 L588.45,637.53 C583.45,636.70 576.53,629.83 575.25,624.75 C574.92,623.44 574.46,575.12 574.93,570.25 C575.73,562.06 581.53,554.86 589.75,553.57 Z" fill="#DCDCDD" fill-rule="nonzero"/><path d="M693.75,675.57 L749.25,675.75 C755.12,678.19 758.87,681.82 761.25,687.75 L761.53,746.25 C759.58,751.83 755.67,757.03 749.25,759.25 L693.83,759.52 C687.30,758.10 682.82,753.01 680.25,746.75 C679.80,744.96 679.79,690.64 680.25,688.75 C682.78,682.20 686.78,677.24 693.75,675.57 Z" fill="#DCDCDD" fill-rule="nonzero"/><path d="M694.75,553.52 C697.50,553.08 747.15,553.48 748.27,553.75 C755.00,556.27 759.65,560.51 761.52,567.60 L761.25,625.25 C758.64,631.42 754.71,635.77 747.96,637.50 L693.25,637.50 C686.86,635.31 682.66,631.24 680.25,624.75 C679.82,623.02 679.81,568.60 680.25,566.75 C682.53,560.32 687.62,554.64 694.75,553.52 Z" fill="#DCDCDD" fill-rule="nonzero"/><path d="M379.75,675.53 L435.25,675.75 C439.77,676.96 446.09,683.63 447.25,688.25 C447.67,689.92 447.66,745.18 447.25,746.75 C444.70,752.69 441.43,756.92 435.25,759.25 L379.83,759.52 C373.12,758.20 369.08,752.82 366.25,746.75 C365.84,745.23 365.82,690.58 366.25,688.75 C368.80,682.21 372.84,677.36 379.75,675.53 Z" fill="#DCDCDD" fill-rule="nonzero"/><path d="M694.25,432.52 L747.96,432.50 C754.98,434.30 758.93,438.97 761.75,445.25 C762.21,446.95 762.22,501.35 761.75,503.25 C760.52,508.22 754.18,514.47 749.25,515.75 C732.96,516.17 708.54,516.15 692.25,515.75 C686.25,513.07 682.59,509.08 680.25,502.75 L679.97,448.29 C681.31,440.19 686.33,434.70 694.25,432.52 Z" fill="#DCDCDD" fill-rule="nonzero"/><path d="M380.75,553.56 C383.76,553.06 432.85,553.41 434.25,553.75 C440.89,555.34 446.70,562.61 447.53,569.37 C448.02,573.29 447.47,623.87 447.25,624.77 C444.98,631.01 441.40,634.86 435.25,637.25 L379.41,637.53 C373.27,635.44 368.69,631.15 366.25,624.75 L365.93,570.25 C366.72,562.14 372.71,554.88 380.75,553.56 Z" fill="#DCDCDD" fill-rule="nonzero"/><g><path d="M172.25,432.86 L187.25,433.26 L195.75,433.12 L204.25,433.09 L208.75,433.41 L213.25,433.09 L224.75,432.86 C232.32,433.34 237.90,438.63 239.75,445.51 L240.18,501.75 C238.77,509.02 233.25,514.20 225.76,516.00 L172.25,515.98 C164.90,514.30 159.77,508.75 157.92,502.25 L157.88,447.97 C158.99,439.47 164.80,434.46 172.25,432.86 Z" fill="#FE0000" fill-rule="nonzero"/><path d="M157.88,447.97 L157.92,502.25 C155.81,486.63 157.61,465.75 156.98,448.53 L157.88,447.97 Z" fill="#DCDCDD" fill-rule="nonzero"/><path d="M172.25,432.86 C188.01,431.78 209.08,431.41 224.75,432.86 L213.25,433.09 L208.75,433.41 L204.25,433.09 L195.75,433.12 L187.25,433.26 L172.25,432.86 Z" fill="#DCDCDD" fill-rule="nonzero"/><path d="M240.18,501.75 L239.75,445.51 C241.25,461.29 240.44,484.76 240.18,501.75 Z" fill="#0A2C74" fill-rule="nonzero"/></g><g><path d="M487.50,432.84 L535.25,432.94 C543.37,432.40 550.40,439.30 552.01,446.75 L552.01,501.75 C551.08,507.51 545.97,513.74 540.72,514.78 C540.23,514.03 538.51,514.54 538.29,515.75 C529.10,515.63 487.49,517.22 481.06,515.00 C476.36,513.38 472.85,508.44 470.95,504.75 C470.83,504.36 472.91,502.25 469.90,501.90 L469.90,448.25 C472.24,439.73 476.96,432.98 487.50,432.84 Z" fill="#FE0000" fill-rule="nonzero"/><path d="M552.01,446.75 C553.63,462.45 553.65,486.06 552.01,501.75 L552.01,446.75 Z" fill="#DCDCDD" fill-rule="nonzero"/><path d="M470.95,504.75 L469.90,501.90 C472.91,502.25 470.83,504.36 470.95,504.75 Z" fill="#DCDCDD" fill-rule="nonzero"/><path d="M540.72,514.78 C540.46,515.97 538.78,516.44 538.29,515.75 C538.51,514.54 540.23,514.03 540.72,514.78 Z" fill="#DCDCDD" fill-rule="nonzero"/></g><g><path d="M380.75,432.85 L391.51,433.49 L398.01,433.11 L434.75,432.90 L435.50,433.00 L436.00,433.50 C443.21,434.83 447.28,442.53 448.08,447.75 L448.23,501.25 C446.15,510.58 440.30,515.27 430.75,516.08 C426.25,516.46 380.19,515.97 379.25,515.75 C373.55,513.46 368.34,510.03 367.58,503.57 C368.95,503.03 367.19,500.55 366.97,499.94 L366.84,496.00 L366.88,475.25 C367.03,456.17 361.84,437.29 380.75,432.85 Z" fill="#FE0000" fill-rule="nonzero"/><g><path d="M434.75,432.90 L398.01,433.11 L398.01,432.34 L434.75,432.90 Z" fill="#DCDCDD" fill-rule="nonzero"/><path d="M398.01,432.34 L398.01,433.11 L391.51,433.49 L391.50,431.93 L398.01,432.34 Z" fill="#1F76FB" fill-rule="nonzero"/></g><path d="M391.50,431.93 L391.51,433.49 L380.75,432.85 L391.50,431.93 Z" fill="#DCDCDD" fill-rule="nonzero"/><path d="M366.97,499.94 C367.19,500.55 368.95,503.03 367.58,503.57 C366.41,504.45 364.98,499.09 366.97,499.94 Z" fill="#1F76FB" fill-rule="nonzero"/></g><g><path d="M290.50,433.15 L300.00,433.20 L309.50,433.14 L314.75,433.10 C329.88,431.48 343.51,433.54 344.16,449.50 L344.24,500.25 C343.82,508.09 337.51,514.15 329.75,515.96 L277.75,515.99 C269.76,514.45 264.64,510.23 262.83,502.25 C262.88,487.52 263.62,464.17 262.42,447.75 C265.38,435.16 273.32,431.32 290.50,433.15 Z" fill="#FE0000" fill-rule="nonzero"/><path d="M290.50,433.15 C290.50,432.18 291.99,432.00 295.25,432.00 C298.62,432.00 300.00,432.17 300.00,433.20 L290.50,433.15 Z" fill="#1F76FB" fill-rule="nonzero"/></g><g><path d="M599.75,433.12 L607.25,433.34 L615.25,433.10 L620.75,433.11 L625.25,433.30 L632.25,433.25 L642.75,433.01 C649.85,434.71 656.23,439.79 656.21,449.75 L656.25,500.75 C656.40,508.35 649.11,514.78 641.14,516.03 L589.25,515.75 C582.24,513.26 575.93,509.21 575.93,500.75 L575.58,492.25 C576.00,481.11 574.20,461.70 575.35,449.75 L576.03,447.00 C576.12,440.33 581.61,436.36 585.25,434.02 C588.27,434.21 595.43,432.18 599.75,433.12 Z" fill="#FE0000" fill-rule="nonzero"/><path d="M585.25,434.02 L590.36,432.42 L615.79,432.24 C631.21,432.13 641.52,432.25 642.75,433.01 L632.25,433.25 L625.25,433.30 L620.75,433.11 L615.25,433.10 L607.25,433.34 L599.75,433.12 C595.43,432.18 588.27,434.21 585.25,434.02 Z" fill="#DCDCDD" fill-rule="nonzero"/><path d="M575.58,492.25 L575.93,500.75 C575.78,498.86 574.11,494.08 575.58,492.25 Z" fill="#0A2C74" fill-rule="nonzero"/><path d="M576.03,447.00 L575.35,449.75 C575.28,449.82 574.07,446.20 576.03,447.00 Z" fill="#0A2C74" fill-rule="nonzero"/></g><g><path d="M261.50,220.00 L261.50,275.04 C265.43,307.12 308.96,308.66 315.00,277.29 L315.00,220.00 L716.47,220.00 L716.47,278.75 C723.48,307.24 762.31,306.83 769.88,278.75 L770.02,220.00 C793.76,220.54 819.75,218.48 838.25,223.53 C874.04,233.31 905.83,265.90 910.33,307.25 L910.53,373.50 L115.42,373.50 L116.07,309.25 C121.89,259.44 159.13,223.18 211.75,220.00 L261.50,220.00 Z" fill="#0A2C74" fill-rule="nonzero"/><path d="M770.02,220.00 L769.88,278.75 C762.31,306.83 723.48,307.24 716.47,278.75 L716.47,220.00 L716.65,182.75 C724.79,155.26 766.69,156.85 770.02,187.75 L770.02,220.00 Z" fill="#DCDCDD" fill-rule="nonzero"/><path d="M315.00,220.00 L315.00,277.29 C308.96,308.66 265.43,307.12 261.50,275.04 L261.50,220.00 L261.50,188.83 C264.43,156.41 308.66,153.86 315.00,185.59 L315.00,220.00 Z" fill="#DCDCDD" fill-rule="nonzero"/></g></g><path d="M262.83,502.25 L262.42,447.75 C263.62,464.17 262.88,487.52 262.83,502.25 Z" fill="#0A2C74" fill-rule="nonzero"/><path d="M448.23,501.25 L448.08,447.75 L448.23,501.25 Z" fill="#0A2C74" fill-rule="nonzero"/><path d="M344.24,500.25 L344.16,449.50 L344.24,500.25 Z" fill="#0A2C74" fill-rule="nonzero"/><path d="M656.25,500.75 L656.21,449.75 L656.25,500.75 Z" fill="#0A2C74" fill-rule="nonzero"/><path d="M487.50,432.84 L535.25,432.94 L487.50,432.84 Z" fill="#0A2C74" fill-rule="nonzero"/><path d="M366.88,475.25 L366.84,496.00 L366.88,475.25 Z" fill="#0A2C74" fill-rule="nonzero"/><path d="M195.75,433.12 L187.25,433.26 L195.75,433.12 Z" fill="#0A2C74" fill-rule="nonzero"/><path d="M607.25,433.34 L599.75,433.12 L607.25,433.34 Z" fill="#1F76FB" fill-rule="nonzero"/><path d="M625.25,433.30 L632.25,433.25 L625.25,433.30 Z" fill="#1F76FB" fill-rule="nonzero"/><path d="M314.75,433.10 L309.50,433.14 L314.75,433.10 Z" fill="#1F76FB" fill-rule="nonzero"/><path d="M620.75,433.11 L615.25,433.10 L620.75,433.11 Z" fill="#0A2C74" fill-rule="nonzero"/><path d="M208.75,433.41 L204.25,433.09 L208.75,433.41 Z" fill="#0A2C74" fill-rule="nonzero"/><path d="M213.25,433.09 L208.75,433.41 L213.25,433.09 Z" fill="#1F76FB" fill-rule="nonzero"/><path d="M436.00,433.50 L435.50,433.00 L436.00,433.50 Z" fill="#DCDCDD" fill-rule="nonzero"/><path d="M1021.99,134.25 C1021.05,133.60 1020.84,131.51 1021.02,129.75 C1021.95,130.40 1022.15,132.49 1021.99,134.25 Z" fill="#DCDCDD" fill-rule="nonzero"/><path d="M132.75,2.04 C132.15,2.70 130.50,3.26 128.95,2.96 C129.42,2.22 130.28,2.01 132.75,2.04 Z" fill="#DCDCDD" fill-rule="nonzero"/><path d="M895.56,1021.00 C895.08,1021.77 894.38,1021.99 892.46,1021.95 C892.93,1021.21 893.62,1021.00 895.56,1021.00 Z" fill="#DCDCDD" fill-rule="nonzero"/><path d="M1022.52,138.75 L1021.97,136.00 C1024.14,135.42 1022.50,138.37 1022.52,138.75 Z" fill="#DCDCDD" fill-rule="nonzero"/><path d="M139.25,0.99 C138.82,1.39 136.79,2.85 136.25,1.46 L139.25,0.99 Z" fill="#DCDCDD" fill-rule="nonzero"/><path d="M-0.00,879.50 L-0.00,876.00 C0.84,876.00 0.99,876.76 0.72,879.63 L-0.00,879.50 Z" fill="#DCDCDD" fill-rule="nonzero"/><path d="M142.00,1.00 L142.00,-0.00 L145.56,0.00 C145.08,0.78 144.28,1.00 142.00,1.00 Z" fill="#DCDCDD" fill-rule="nonzero"/><path d="M1024.00,143.00 L1024.00,146.00 C1023.23,146.00 1023.01,145.32 1023.05,143.00 L1024.00,143.00 Z" fill="#DCDCDD" fill-rule="nonzero"/><path d="M1.00,144.00 C1.00,146.33 0.78,147.00 -0.00,147.00 L-0.00,144.00 L1.00,144.00 Z" fill="#DCDCDD" fill-rule="nonzero"/><path d="M145.06,1024.00 L142.00,1024.00 L142.00,1022.95 C143.89,1022.99 144.58,1023.23 145.06,1024.00 Z" fill="#DCDCDD" fill-rule="nonzero"/><path d="M882.55,1023.02 L881.94,1024.00 L879.50,1024.00 C879.50,1023.23 880.19,1023.01 882.55,1023.02 Z" fill="#DCDCDD" fill-rule="nonzero"/><path d="M880.00,-0.00 L881.94,0.00 L882.56,1.00 C880.58,1.00 880.00,0.78 880.00,-0.00 Z" fill="#DCDCDD" fill-rule="nonzero"/><path d="M1023.00,881.00 C1023.30,879.92 1022.19,878.60 1024.00,879.00 L1024.00,881.00 L1023.00,881.00 Z" fill="#DCDCDD" fill-rule="nonzero"/></svg>
