<svg version="1.1" xmlns="http://www.w3.org/2000/svg" viewBox="0 0 1024 1024" width="1024" height="1024"><path d="M200.94,0.99 C203.31,1.00 204.00,0.78 204.00,-0.00 L816.75,0.10 L821.99,1.09 C828.21,1.18 835.40,2.47 840.75,3.14 L843.97,4.10 L845.75,4.09 L848.99,5.09 C935.86,23.56 997.33,86.12 1018.01,170.94 L1018.89,174.25 L1021.07,185.96 C1020.73,187.50 1021.19,189.70 1021.91,190.21 L1022.95,200.51 C1022.99,203.21 1023.23,204.00 1024.00,204.00 L1024.00,820.00 C1023.23,820.00 1023.01,820.68 1023.06,823.01 C1022.31,826.96 1022.30,830.84 1021.98,833.75 C1021.64,834.29 1020.33,836.75 1021.46,837.25 L1020.98,840.25 C1020.49,840.70 1019.22,843.08 1020.48,843.75 C1010.79,892.50 987.58,931.18 958.57,960.87 C932.77,985.50 901.57,1005.36 862.03,1016.10 C860.50,1016.02 859.92,1016.23 859.44,1017.00 C856.17,1017.18 852.72,1018.71 849.54,1019.08 C847.62,1019.02 846.92,1019.23 846.44,1020.00 L845.06,1020.00 C842.73,1020.00 841.92,1020.23 841.44,1021.00 L839.00,1021.00 C837.11,1021.00 836.42,1021.23 835.94,1022.00 L833.00,1021.97 L830.25,1022.42 L823.51,1023.06 C821.18,1023.01 820.50,1023.23 820.50,1024.00 L203.00,1024.00 C203.00,1023.23 202.32,1023.01 200.00,1023.03 L180.75,1020.58 C101.75,1005.63 44.59,954.09 17.11,888.75 C11.51,875.23 6.51,860.21 4.10,843.97 L3.11,840.75 L0.92,822.52 C0.98,820.18 0.78,819.50 -0.00,819.50 L-0.00,206.50 C0.78,206.50 1.00,205.37 0.99,201.50 L2.11,190.25 L3.09,186.02 L3.01,183.75 C3.71,183.19 4.32,181.38 3.91,179.96 C21.59,89.07 88.67,21.07 180.02,4.09 L184.25,3.07 L200.94,0.99 Z" fill="#2176FC" fill-rule="nonzero"/><g><path d="M278.25,263.67 L826.25,263.83 L827.50,264.00 L827.49,360.25 L827.75,391.25 L827.52,571.50 L297.44,571.50 L297.44,382.75 C295.98,368.51 287.97,360.20 277.35,354.92 L277.75,263.50 L278.25,263.67 Z" fill="#FEFEFD" fill-rule="nonzero"/><path d="M625.02,476.50 L673.78,476.50 C675.15,476.88 677.23,479.63 677.50,480.95 C677.52,481.04 677.50,528.60 677.50,528.60 L674.10,532.00 L624.90,532.00 L621.47,528.57 L621.75,479.42 L625.02,476.50 Z" fill="#D4D5DA" fill-rule="nonzero"/><path d="M744.50,390.55 C770.19,390.53 769.68,390.48 771.53,393.28 C772.80,395.22 773.05,439.72 771.80,442.70 C770.37,446.13 771.44,446.00 744.36,446.00 C718.43,446.00 718.55,446.01 717.26,443.51 C715.87,440.82 716.15,394.58 717.57,392.78 C719.29,390.59 719.64,390.56 744.50,390.55 Z" fill="#D4D5DA" fill-rule="nonzero"/><path d="M345.25,476.56 L393.48,476.50 L396.75,479.42 C397.14,480.36 397.14,528.14 396.75,529.08 L393.48,532.00 L344.52,532.00 L341.25,529.08 C340.80,527.99 340.91,481.21 341.25,480.21 C341.85,478.44 343.61,476.94 345.25,476.56 Z" fill="#D4D5DA" fill-rule="nonzero"/><path d="M626.73,390.50 C627.40,390.35 672.60,390.35 673.27,390.50 C675.98,391.10 677.59,393.27 678.07,396.25 C678.26,397.41 677.79,442.94 677.75,443.08 L674.48,446.00 L625.52,446.00 L622.36,443.18 C622.32,443.05 621.76,397.11 621.90,396.25 C622.38,393.28 624.05,391.10 626.73,390.50 Z" fill="#ED4A32" fill-rule="nonzero"/><path d="M719.40,476.50 L768.39,476.50 L771.50,479.40 L771.50,529.08 L768.58,532.00 L719.25,531.98 C717.97,531.17 716.33,529.61 716.00,528.07 C715.99,528.00 716.00,479.90 716.00,479.90 L719.40,476.50 Z" fill="#D4D5DA" fill-rule="nonzero"/><path d="M345.40,390.50 L393.97,390.50 L397.50,393.60 L397.50,443.08 L394.58,446.00 L344.92,446.00 L342.00,443.08 L342.00,393.90 L345.40,390.50 Z" fill="#D4D5DA" fill-rule="nonzero"/><path d="M532.40,390.50 L581.10,390.50 L584.50,393.90 L584.50,442.47 L581.40,446.00 C581.40,446.00 533.05,446.14 532.43,446.00 C531.02,445.68 529.29,443.48 529.00,442.05 C528.98,441.96 529.00,393.90 529.00,393.90 L532.40,390.50 Z" fill="#D4D5DA" fill-rule="nonzero"/><path d="M718.95,307.50 L768.57,307.50 C770.25,307.88 771.68,310.14 772.00,311.97 C772.03,312.16 772.00,359.10 772.00,359.10 L768.60,362.50 L719.19,362.50 L716.25,359.44 C716.25,359.44 715.56,316.58 715.95,313.25 C716.15,311.51 717.03,308.08 718.95,307.50 Z" fill="#D4D5DA" fill-rule="nonzero"/><path d="M438.40,476.50 C438.89,476.36 486.81,476.49 486.87,476.50 C488.46,476.95 490.32,480.07 490.53,481.28 C490.98,483.89 490.25,529.08 490.25,529.08 L486.98,532.00 L437.92,532.00 L435.00,529.08 L435.00,479.90 L438.40,476.50 Z" fill="#D4D5DA" fill-rule="nonzero"/><path d="M624.59,307.50 L674.91,307.50 L677.50,310.58 L677.50,359.58 L674.58,362.50 L624.92,362.50 L622.00,359.58 L622.00,310.58 L624.59,307.50 Z" fill="#D4D5DA" fill-rule="nonzero"/><path d="M531.61,476.50 L580.58,476.50 L583.50,479.42 L583.50,529.08 L580.58,532.00 L531.58,532.00 L528.50,529.41 L528.50,479.40 L531.61,476.50 Z" fill="#D4D5DA" fill-rule="nonzero"/><path d="M439.53,390.50 L487.60,390.50 L491.00,393.90 L491.00,443.08 L488.08,446.00 L438.92,446.00 L436.00,443.08 L436.00,393.60 L439.53,390.50 Z" fill="#D4D5DA" fill-rule="nonzero"/><path d="M438.60,307.50 L488.41,307.50 L491.00,310.58 L491.00,359.10 L487.60,362.50 C487.60,362.50 438.98,362.51 438.93,362.50 C437.52,362.18 435.79,359.98 435.50,358.55 C435.45,358.31 435.50,311.03 435.50,311.03 L438.60,307.50 Z" fill="#D4D5DA" fill-rule="nonzero"/><path d="M531.69,307.50 L581.41,307.50 L584.00,310.58 L584.00,359.60 L580.89,362.50 L532.02,362.50 L528.75,359.58 C528.31,358.53 528.40,311.40 528.75,310.57 L531.69,307.50 Z" fill="#D4D5DA" fill-rule="nonzero"/><g><path d="M827.52,571.50 L827.39,811.25 C821.45,838.77 806.19,855.38 779.25,861.98 L296.45,862.01 L297.44,571.50 L827.52,571.50 Z" fill="#FDEAC5" fill-rule="nonzero"/><path d="M347.25,733.50 L780.25,733.52 C789.61,735.72 789.62,748.31 780.25,750.48 L347.21,750.50 C338.00,748.30 338.27,735.73 347.25,733.50 Z" fill="#986A3B" fill-rule="nonzero"/><path d="M346.75,621.06 L780.53,621.00 C788.84,622.97 789.75,634.77 781.55,637.50 L345.73,637.50 C338.16,634.26 338.72,623.17 346.75,621.06 Z" fill="#986A3B" fill-rule="nonzero"/><path d="M345.73,677.50 L781.63,677.50 C788.99,680.79 789.36,689.66 781.83,693.75 L347.22,694.00 C338.77,692.14 338.02,680.80 345.73,677.50 Z" fill="#986A3B" fill-rule="nonzero"/><path d="M346.75,790.06 L781.05,790.00 C789.21,793.32 789.60,803.40 781.11,806.50 L346.15,806.50 C338.42,803.37 338.37,792.41 346.75,790.06 Z" fill="#986A3B" fill-rule="nonzero"/><g><path d="M277.35,354.92 C287.97,360.20 295.98,368.51 297.44,382.75 L297.44,571.50 L296.45,862.01 C296.61,880.77 307.15,891.70 323.75,893.98 L783.25,893.99 C814.87,891.64 837.70,866.70 840.99,835.75 L840.99,420.75 C839.99,409.97 834.06,397.09 827.75,391.25 L827.49,360.25 C849.01,370.92 866.27,391.90 868.47,421.75 L868.50,856.88 C865.98,892.47 839.76,921.91 804.33,924.50 L228.25,924.46 C192.34,919.32 172.64,896.30 165.74,861.75 L165.39,820.35 C178.44,820.55 193.08,820.64 206.00,820.35 C222.50,840.94 251.15,826.54 246.25,798.20 C239.17,778.75 218.12,773.68 205.38,791.50 L165.50,791.50 L165.50,708.25 L206.54,708.69 C221.18,727.76 249.23,715.76 247.00,689.71 C242.99,667.82 218.76,660.54 205.48,679.50 C192.76,679.32 176.90,679.86 165.63,679.22 L165.50,596.37 L206.63,596.37 C224.58,619.15 255.31,598.40 245.02,570.20 C235.95,553.34 216.75,551.76 205.67,567.50 L166.17,567.50 L165.50,566.83 L165.50,484.37 L206.63,484.37 C222.56,505.10 251.50,490.58 246.75,462.68 C240.94,443.57 217.92,437.65 206.25,455.32 C194.24,455.58 177.16,455.70 165.50,455.25 C165.83,445.24 164.94,432.89 165.50,423.75 C167.83,386.12 192.61,358.13 228.75,354.66 C243.48,354.46 263.09,354.21 277.35,354.92 Z" fill="#694321" fill-rule="nonzero"/><path d="M827.75,391.25 C834.06,397.09 839.99,409.97 840.99,420.75 L840.99,835.75 C837.70,866.70 814.87,891.64 783.25,893.99 L323.75,893.98 C307.15,891.70 296.61,880.77 296.45,862.01 L779.25,861.98 C806.19,855.38 821.45,838.77 827.39,811.25 L827.52,571.50 L827.75,391.25 Z" fill="#F0D4A8" fill-rule="nonzero"/><path d="M165.50,484.37 L154.75,484.19 C133.33,478.62 141.47,450.99 165.50,455.25 C177.16,455.70 194.24,455.58 206.25,455.32 C217.92,437.65 240.94,443.57 246.75,462.68 C251.50,490.58 222.56,505.10 206.63,484.37 L165.50,484.37 Z" fill="#3F2610" fill-rule="nonzero"/><path d="M165.50,596.37 L154.75,596.22 C138.60,593.40 138.53,571.18 154.54,567.50 C156.40,567.21 162.97,567.75 165.50,567.50 C165.72,567.48 165.28,566.86 165.50,566.83 L166.17,567.50 L205.67,567.50 C216.75,551.76 235.95,553.34 245.02,570.20 C255.31,598.40 224.58,619.15 206.63,596.37 L165.50,596.37 Z" fill="#3F2610" fill-rule="nonzero"/><path d="M165.50,708.25 L151.65,707.79 C134.37,698.09 142.27,675.48 165.63,679.22 C176.90,679.86 192.76,679.32 205.48,679.50 C218.76,660.54 242.99,667.82 247.00,689.71 C249.23,715.76 221.18,727.76 206.54,708.69 L165.50,708.25 Z" fill="#3F2610" fill-rule="nonzero"/><path d="M165.50,791.50 L205.38,791.50 C218.12,773.68 239.17,778.75 246.25,798.20 C251.15,826.54 222.50,840.94 206.00,820.35 C193.08,820.64 178.44,820.55 165.39,820.35 L155.25,820.37 C139.14,818.57 137.76,795.78 153.75,791.50 L165.50,791.50 Z" fill="#3F2610" fill-rule="nonzero"/></g></g><g><path d="M381.52,144.00 L381.24,170.75 C356.92,192.24 377.14,234.78 412.03,227.02 C436.10,221.51 446.75,189.00 426.58,170.75 L426.39,144.00 L530.25,143.86 L530.14,170.75 C507.14,190.88 523.85,230.25 555.25,227.98 C582.79,226.26 597.56,189.87 575.25,170.75 L575.25,144.00 L679.52,144.00 L679.25,170.75 C658.64,189.05 669.95,221.19 693.44,227.03 C728.20,234.40 748.63,192.80 724.27,170.75 L723.98,144.00 L762.25,144.00 C798.26,145.84 824.82,171.87 827.50,206.74 L827.50,264.00 L826.25,263.83 L278.25,263.67 L277.75,263.50 C278.23,243.67 278.00,219.00 277.92,200.75 C286.42,168.39 305.86,147.46 342.59,144.00 L381.52,144.00 Z" fill="#ED4A32" fill-rule="nonzero"/><g><path d="M426.39,144.00 L426.58,170.75 C425.98,179.99 427.14,188.78 424.60,195.43 C417.92,212.92 392.57,213.59 383.84,197.25 C379.95,189.97 382.24,180.89 381.24,170.75 L381.52,144.00 L381.52,107.25 C385.67,83.36 418.84,81.96 425.90,104.69 L426.39,144.00 Z" fill="#253349" fill-rule="nonzero"/><path d="M381.24,170.75 C382.24,180.89 379.95,189.97 383.84,197.25 C392.57,213.59 417.92,212.92 424.60,195.43 C427.14,188.78 425.98,179.99 426.58,170.75 C446.75,189.00 436.10,221.51 412.03,227.02 C377.14,234.78 356.92,192.24 381.24,170.75 Z" fill="#FEFEFD" fill-rule="nonzero"/></g><g><path d="M575.25,144.00 L575.25,170.75 L574.97,192.29 C568.48,215.07 535.62,214.45 530.50,191.35 C530.27,185.53 530.96,176.22 530.14,170.75 L530.25,143.86 L530.51,106.75 C535.03,83.11 568.48,82.28 575.02,105.25 L575.25,144.00 Z" fill="#253349" fill-rule="nonzero"/><path d="M530.14,170.75 C530.96,176.22 530.27,185.53 530.50,191.35 C535.62,214.45 568.48,215.07 574.97,192.29 L575.25,170.75 C597.56,189.87 582.79,226.26 555.25,227.98 C523.85,230.25 507.14,190.88 530.14,170.75 Z" fill="#FEFEFD" fill-rule="nonzero"/></g><g><path d="M723.98,144.00 L724.27,170.75 C723.72,180.83 725.14,189.88 721.50,197.30 C712.58,215.50 685.36,211.32 679.61,193.25 L679.25,170.75 L679.52,144.00 L679.52,106.75 C684.80,81.62 720.77,82.24 723.98,108.75 L723.98,144.00 Z" fill="#253349" fill-rule="nonzero"/><path d="M679.25,170.75 L679.61,193.25 C685.36,211.32 712.58,215.50 721.50,197.30 C725.14,189.88 723.72,180.83 724.27,170.75 C748.63,192.80 728.20,234.40 693.44,227.03 C669.95,221.19 658.64,189.05 679.25,170.75 Z" fill="#FEFEFD" fill-rule="nonzero"/></g></g></g><path d="M826.25,263.83 L278.25,263.67 L826.25,263.83 Z" fill="#986A3B" fill-rule="nonzero"/><path d="M165.50,484.37 L154.75,484.19 L165.50,484.37 Z" fill="#253349" fill-rule="nonzero"/><path d="M165.50,596.37 L154.75,596.22 L165.50,596.37 Z" fill="#253349" fill-rule="nonzero"/><path d="M155.25,820.37 L165.39,820.35 L155.25,820.37 Z" fill="#253349" fill-rule="nonzero"/><path d="M184.25,3.07 L180.02,4.09 C180.00,3.23 180.90,3.01 184.25,3.07 Z" fill="#D4D5DA" fill-rule="nonzero"/><path d="M3.09,186.02 L2.11,190.25 C2.02,186.88 2.23,186.00 3.09,186.02 Z" fill="#D4D5DA" fill-rule="nonzero"/><path d="M1021.91,190.21 C1021.19,189.70 1020.73,187.50 1021.07,185.96 C1022.31,185.88 1022.06,188.86 1021.91,190.21 Z" fill="#D4D5DA" fill-rule="nonzero"/><path d="M845.06,1020.00 C844.58,1020.77 843.77,1021.00 841.44,1021.00 C841.92,1020.23 842.73,1020.00 845.06,1020.00 Z" fill="#D4D5DA" fill-rule="nonzero"/><path d="M3.91,179.96 C4.32,181.38 3.71,183.19 3.01,183.75 C3.00,181.28 3.20,180.43 3.91,179.96 Z" fill="#D4D5DA" fill-rule="nonzero"/><path d="M839.00,1021.00 C839.00,1021.77 838.31,1022.00 835.94,1022.00 C836.42,1021.23 837.11,1021.00 839.00,1021.00 Z" fill="#D4D5DA" fill-rule="nonzero"/><path d="M843.97,4.10 L840.75,3.14 C843.27,3.03 843.99,3.25 843.97,4.10 Z" fill="#D4D5DA" fill-rule="nonzero"/><path d="M848.99,5.09 L845.75,4.09 C848.27,4.02 849.00,4.25 848.99,5.09 Z" fill="#D4D5DA" fill-rule="nonzero"/><path d="M1020.98,840.25 L1020.48,843.75 C1019.22,843.08 1020.49,840.70 1020.98,840.25 Z" fill="#D4D5DA" fill-rule="nonzero"/><path d="M4.10,843.97 C3.25,843.99 3.03,843.27 3.11,840.75 L4.10,843.97 Z" fill="#D4D5DA" fill-rule="nonzero"/><path d="M849.54,1019.08 C849.08,1019.79 848.38,1020.00 846.44,1020.00 C846.92,1019.23 847.62,1019.02 849.54,1019.08 Z" fill="#D4D5DA" fill-rule="nonzero"/><path d="M1018.89,174.25 L1018.01,170.94 C1018.78,171.42 1018.98,172.16 1018.89,174.25 Z" fill="#D4D5DA" fill-rule="nonzero"/><path d="M862.03,1016.10 C862.01,1016.80 861.42,1017.00 859.44,1017.00 C859.92,1016.23 860.50,1016.02 862.03,1016.10 Z" fill="#D4D5DA" fill-rule="nonzero"/><path d="M833.00,1021.97 C833.65,1024.25 830.46,1022.40 830.25,1022.42 L833.00,1021.97 Z" fill="#D4D5DA" fill-rule="nonzero"/><path d="M1021.98,833.75 L1021.46,837.25 C1020.33,836.75 1021.64,834.29 1021.98,833.75 Z" fill="#D4D5DA" fill-rule="nonzero"/><path d="M0.99,201.50 C1.00,205.37 0.78,206.50 -0.00,206.50 L-0.00,201.50 L0.99,201.50 Z" fill="#D4D5DA" fill-rule="nonzero"/><path d="M816.75,0.10 L822.00,-0.00 L821.99,1.09 L816.75,0.10 Z" fill="#D4D5DA" fill-rule="nonzero"/><path d="M1024.00,200.50 L1024.00,204.00 C1023.23,204.00 1022.99,203.21 1022.95,200.51 L1024.00,200.50 Z" fill="#D4D5DA" fill-rule="nonzero"/><path d="M1023.06,823.01 C1023.01,820.68 1023.23,820.00 1024.00,820.00 L1024.00,823.00 L1023.06,823.01 Z" fill="#D4D5DA" fill-rule="nonzero"/><path d="M203.00,1024.00 L200.00,1024.00 L200.00,1023.03 C202.32,1023.01 203.00,1023.23 203.00,1024.00 Z" fill="#D4D5DA" fill-rule="nonzero"/><path d="M823.51,1023.06 L823.50,1024.00 L820.50,1024.00 C820.50,1023.23 821.18,1023.01 823.51,1023.06 Z" fill="#D4D5DA" fill-rule="nonzero"/><path d="M200.94,0.99 L201.56,0.00 L204.00,-0.00 C204.00,0.78 203.31,1.00 200.94,0.99 Z" fill="#D4D5DA" fill-rule="nonzero"/><path d="M0.00,821.94 L-0.00,819.50 C0.78,819.50 0.98,820.18 0.92,822.52 L0.00,821.94 Z" fill="#D4D5DA" fill-rule="nonzero"/></svg>
