<svg version="1.1" xmlns="http://www.w3.org/2000/svg" viewBox="0 0 1024 1024" width="1024" height="1024"><path d="M173.00,1.00 C175.33,1.00 176.00,0.78 176.00,-0.00 L848.00,-0.00 C848.00,0.78 848.68,1.00 851.06,1.00 C938.47,11.21 999.75,71.62 1019.13,149.96 C1018.62,150.78 1019.25,152.77 1019.91,152.53 C1020.81,159.24 1022.73,166.23 1023.00,173.44 C1023.00,176.24 1023.21,177.00 1024.00,177.00 L1024.00,847.50 C1023.23,847.50 1023.00,848.06 1023.00,850.00 C1019.68,887.15 1006.09,917.54 989.05,941.25 C959.53,981.51 919.29,1012.31 859.58,1021.98 L856.75,1022.43 L850.51,1023.07 C848.18,1023.02 847.50,1023.23 847.50,1024.00 L176.50,1024.00 C176.50,1023.22 175.82,1023.00 173.44,1023.00 C161.11,1022.51 150.66,1019.19 139.75,1016.79 L138.25,1016.22 C98.68,1004.47 68.36,981.35 45.23,954.75 C25.16,931.11 9.16,901.92 3.09,865.08 L2.12,861.25 C1.84,858.50 0.49,853.61 1.00,849.56 C1.00,847.18 0.78,846.50 -0.00,846.50 L-0.00,177.50 C0.78,177.50 0.99,176.59 0.97,173.46 L2.05,162.03 C3.01,162.23 3.25,159.87 2.87,158.98 C4.69,148.46 7.39,138.10 10.63,128.75 C24.46,88.54 54.33,53.32 87.61,31.25 C105.70,19.15 129.62,8.26 155.25,3.48 C161.36,3.06 165.80,0.52 173.00,1.00 Z" fill="#267AFC" fill-rule="nonzero"/><g><path d="M875.25,346.50 C875.11,491.99 874.64,645.11 875.23,791.75 C869.12,837.64 838.95,868.56 792.25,873.45 L234.25,873.49 C185.52,870.96 149.45,834.09 148.03,784.25 C148.32,639.78 147.29,490.87 148.55,346.52 L875.25,346.50 Z" fill="#FEFEFE" fill-rule="nonzero"/><path d="M351.75,657.56 C354.82,657.00 417.75,657.47 418.75,657.75 C423.27,659.02 427.92,664.88 428.53,669.34 C429.11,673.59 428.43,735.10 428.25,735.75 C427.07,739.96 421.45,744.80 416.96,745.50 C416.78,745.53 352.95,745.58 352.37,745.50 C347.43,744.80 342.01,739.90 340.75,734.82 C340.33,714.97 340.35,687.44 340.75,667.75 C342.89,663.11 346.42,658.52 351.75,657.56 Z" fill="#CECED0" fill-rule="nonzero"/><path d="M605.75,657.59 C606.98,657.37 668.07,657.14 670.63,657.50 C675.57,658.20 680.99,663.10 682.25,668.18 C682.66,687.86 682.66,715.23 682.25,734.75 C680.24,740.66 676.46,743.98 670.39,745.53 L604.25,745.25 C599.32,743.12 595.25,739.36 594.47,733.54 C593.89,729.18 594.56,667.94 594.75,667.25 C595.93,663.04 601.43,658.33 605.75,657.59 Z" fill="#CECED0" fill-rule="nonzero"/><path d="M478.75,657.58 L544.34,657.50 C548.49,658.30 554.08,663.58 555.25,667.75 C555.46,668.50 556.10,728.71 555.53,733.15 C554.71,739.49 549.49,744.71 543.15,745.53 L477.75,745.25 C472.55,742.95 468.40,739.56 467.50,733.32 C467.32,732.03 467.32,670.97 467.50,669.68 C468.34,663.85 473.26,658.57 478.75,657.58 Z" fill="#267AFC" fill-rule="nonzero"/><path d="M605.25,529.56 C607.86,529.10 672.23,529.58 672.83,529.75 C677.82,532.01 681.81,536.57 682.53,542.35 L682.25,606.75 C680.34,612.40 676.74,615.19 671.25,617.25 C669.30,617.72 608.11,617.74 605.75,617.25 C600.10,616.08 595.38,611.34 594.50,605.82 L594.51,540.25 C596.26,535.39 599.78,530.55 605.25,529.56 Z" fill="#CECED0" fill-rule="nonzero"/><path d="M351.75,529.58 L417.75,529.52 C421.55,530.25 427.19,535.46 428.25,539.25 C428.41,539.82 429.11,601.59 428.53,605.66 C427.81,610.70 423.01,615.96 417.75,617.25 C398.27,617.66 370.73,617.66 351.25,617.25 C345.46,615.34 341.23,610.74 340.47,604.65 C339.91,600.16 340.48,541.56 340.78,540.25 C341.95,535.15 346.84,530.46 351.75,529.58 Z" fill="#CECED0" fill-rule="nonzero"/><path d="M478.75,529.56 C481.82,529.01 544.86,529.49 545.75,529.75 C549.24,530.76 554.32,536.18 555.25,539.75 L555.53,605.37 C553.98,611.46 550.67,615.24 544.75,617.25 L480.38,617.54 C473.77,616.57 469.56,612.29 467.50,606.41 C467.35,605.65 467.33,542.25 467.50,541.18 C468.36,535.80 473.57,530.50 478.75,529.56 Z" fill="#CECED0" fill-rule="nonzero"/><path d="M351.75,401.59 L417.37,401.50 C422.98,402.74 426.03,406.29 428.25,411.25 L428.53,477.66 C427.43,483.41 423.42,487.24 417.75,489.25 C416.05,489.65 355.06,489.69 352.75,489.25 C346.91,488.14 342.10,483.69 340.75,478.25 L340.47,413.85 C341.21,408.14 345.98,402.58 351.75,401.59 Z" fill="#CECED0" fill-rule="nonzero"/><path d="M478.25,401.52 L544.75,401.52 C550.02,403.13 553.04,406.75 555.25,411.75 C555.72,413.50 555.74,476.78 555.25,478.75 C554.08,483.46 548.98,488.14 544.25,489.25 C524.77,489.66 497.23,489.66 477.75,489.25 C472.93,487.14 468.39,483.18 467.50,477.49 C467.45,477.16 467.47,413.21 467.50,413.04 C468.27,408.11 473.58,402.42 478.25,401.52 Z" fill="#CECED0" fill-rule="nonzero"/><path d="M604.75,401.52 L672.75,401.75 C677.55,403.99 680.43,407.04 682.25,412.25 L682.53,476.65 C681.54,482.99 677.27,487.14 671.25,489.25 C651.62,489.92 625.06,489.30 605.25,489.18 C599.94,487.46 595.42,483.59 594.50,477.82 C594.31,476.62 594.37,412.81 594.50,412.16 C596.34,407.05 599.47,403.21 604.75,401.52 Z" fill="#CECED0" fill-rule="nonzero"/><path d="M225.25,657.53 L291.75,657.75 C296.69,659.85 299.88,663.04 301.50,668.12 L301.48,735.25 C299.50,741.01 295.14,744.92 288.75,745.56 C283.76,746.07 224.52,745.47 223.75,745.25 C219.73,744.12 214.70,738.93 214.00,735.06 L214.00,667.97 C215.97,662.94 219.64,658.96 225.25,657.53 Z" fill="#CECED0" fill-rule="nonzero"/><path d="M224.75,529.60 L291.06,529.50 C296.02,531.10 299.85,534.63 301.48,539.75 L301.48,606.75 C299.62,612.50 295.15,616.68 288.56,617.50 C286.60,617.74 227.06,617.63 226.18,617.50 C220.78,616.72 214.98,611.79 214.01,606.75 L214.00,539.61 C215.68,535.01 219.65,530.55 224.75,529.60 Z" fill="#CECED0" fill-rule="nonzero"/><path d="M732.75,657.57 C736.07,657.00 798.13,657.44 799.25,657.75 C802.58,658.69 807.81,663.92 808.75,667.25 C808.89,667.75 809.61,731.73 809.03,734.95 C808.19,739.56 802.28,744.75 797.46,745.50 C796.05,745.72 733.52,745.63 732.68,745.50 C727.24,744.63 722.37,739.76 721.50,734.32 C721.38,733.55 721.25,670.62 721.50,668.87 C722.21,663.84 727.54,658.47 732.75,657.57 Z" fill="#CECED0" fill-rule="nonzero"/><path d="M732.25,529.58 L797.63,529.50 C802.77,530.64 806.94,533.98 808.75,539.22 C809.23,541.08 809.19,606.20 808.75,607.75 C806.83,612.02 803.11,616.05 798.25,617.25 C796.39,617.71 733.61,617.71 731.75,617.25 C727.20,616.12 722.36,611.19 721.51,606.75 L721.50,540.68 C722.34,535.42 727.22,530.48 732.25,529.58 Z" fill="#CECED0" fill-rule="nonzero"/><path d="M731.75,401.53 L797.75,401.51 C803.63,402.51 806.45,406.36 808.75,411.25 C808.94,411.94 809.61,473.18 809.03,477.54 C808.26,483.30 803.23,488.35 797.25,489.22 C794.22,489.66 734.13,489.66 732.25,489.25 C727.53,488.22 722.36,483.17 721.51,478.75 L721.50,411.70 C723.22,406.69 726.78,403.25 731.75,401.53 Z" fill="#CECED0" fill-rule="nonzero"/><path d="M224.75,401.60 L291.25,401.52 C296.32,403.13 299.85,406.69 301.49,411.75 L301.49,478.75 C300.68,482.95 295.19,488.41 290.75,489.18 C288.49,489.58 227.63,489.61 225.75,489.25 C219.73,488.09 214.93,483.66 214.01,477.75 L214.00,411.61 C215.68,407.01 219.65,402.55 224.75,401.60 Z" fill="#CECED0" fill-rule="nonzero"/><g><path d="M300.50,176.50 L300.48,216.75 C264.19,243.14 285.86,304.13 335.76,299.00 C375.35,294.40 392.11,241.82 358.95,216.75 L358.78,176.50 L664.99,176.50 L664.75,216.75 C631.76,242.79 647.96,293.28 687.75,298.98 C737.17,304.22 759.60,244.12 723.26,216.75 L723.25,176.50 L794.80,176.50 C836.61,180.62 871.64,214.33 874.83,256.25 C875.73,284.26 875.72,318.17 875.25,346.50 L148.55,346.52 L148.34,331.00 L148.34,266.50 C148.68,216.34 184.58,180.86 230.75,176.50 L300.50,176.50 Z" fill="#F0342F" fill-rule="nonzero"/><g><path d="M358.78,176.50 L358.95,216.75 C358.98,227.48 359.22,241.17 358.66,250.25 C351.61,283.65 304.31,282.67 300.48,247.41 L300.48,216.75 L300.50,176.50 L300.50,138.44 C303.53,104.11 349.22,101.11 358.36,132.75 L358.78,176.50 Z" fill="#FEFEFE" fill-rule="nonzero"/><path d="M300.48,216.75 L300.48,247.41 C304.31,282.67 351.61,283.65 358.66,250.25 C359.22,241.17 358.98,227.48 358.95,216.75 C392.11,241.82 375.35,294.40 335.76,299.00 C285.86,304.13 264.19,243.14 300.48,216.75 Z" fill="#0756BC" fill-rule="nonzero"/></g><g><path d="M723.25,176.50 L723.26,216.75 L722.97,251.75 C714.92,281.97 673.64,281.91 665.04,252.25 L664.75,216.75 L664.99,176.50 L665.17,132.75 C670.22,118.33 684.27,106.39 703.27,111.96 C729.58,122.52 721.57,144.69 723.25,176.50 Z" fill="#FEFEFE" fill-rule="nonzero"/><path d="M664.75,216.75 L665.04,252.25 C673.64,281.91 714.92,281.97 722.97,251.75 L723.26,216.75 C759.60,244.12 737.17,304.22 687.75,298.98 C647.96,293.28 631.76,242.79 664.75,216.75 Z" fill="#0756BC" fill-rule="nonzero"/></g></g></g><path d="M148.34,266.50 L148.34,331.00 L148.34,266.50 Z" fill="#0756BC" fill-rule="nonzero"/><path d="M2.87,158.98 C3.25,159.87 3.01,162.23 2.05,162.03 C2.01,160.12 2.20,159.43 2.87,158.98 Z" fill="#CECED0" fill-rule="nonzero"/><path d="M3.09,865.08 C1.69,865.11 1.89,862.58 2.12,861.25 L3.09,865.08 Z" fill="#CECED0" fill-rule="nonzero"/><path d="M1019.91,152.53 C1019.25,152.77 1018.62,150.78 1019.13,149.96 C1019.80,150.42 1019.98,151.00 1019.91,152.53 Z" fill="#CECED0" fill-rule="nonzero"/><path d="M859.58,1021.98 C859.30,1023.40 857.70,1023.03 856.75,1022.43 L859.58,1021.98 Z" fill="#CECED0" fill-rule="nonzero"/><path d="M139.75,1016.79 L138.25,1016.22 L139.75,1016.79 Z" fill="#CECED0" fill-rule="nonzero"/><path d="M0.97,173.46 C0.99,176.59 0.78,177.50 -0.00,177.50 L0.00,174.06 L0.97,173.46 Z" fill="#CECED0" fill-rule="nonzero"/><path d="M1024.00,174.06 L1024.00,177.00 C1023.21,177.00 1023.00,176.24 1023.00,173.44 L1024.00,174.06 Z" fill="#CECED0" fill-rule="nonzero"/><path d="M173.00,1.00 L173.00,-0.00 L176.00,-0.00 C176.00,0.78 175.33,1.00 173.00,1.00 Z" fill="#CECED0" fill-rule="nonzero"/><path d="M850.51,1023.07 L850.50,1024.00 L847.50,1024.00 C847.50,1023.23 848.18,1023.02 850.51,1023.07 Z" fill="#CECED0" fill-rule="nonzero"/><path d="M848.00,-0.00 L850.44,0.00 L851.06,1.00 C848.68,1.00 848.00,0.78 848.00,-0.00 Z" fill="#CECED0" fill-rule="nonzero"/><path d="M0.00,848.94 L-0.00,846.50 C0.78,846.50 1.00,847.18 1.00,849.56 L0.00,848.94 Z" fill="#CECED0" fill-rule="nonzero"/><path d="M176.50,1024.00 L174.06,1024.00 L173.44,1023.00 C175.82,1023.00 176.50,1023.22 176.50,1024.00 Z" fill="#CECED0" fill-rule="nonzero"/><path d="M1023.00,850.00 C1023.00,848.06 1023.23,847.50 1024.00,847.50 L1024.00,850.00 L1023.00,850.00 Z" fill="#CECED0" fill-rule="nonzero"/></svg>
