<svg version="1.1" xmlns="http://www.w3.org/2000/svg" viewBox="0 0 1024 1024" width="1024" height="1024"><path d="M151.56,-0.00 L872.00,-0.00 C940.23,10.31 988.35,50.22 1010.92,104.75 C1016.96,118.80 1020.85,135.02 1024.00,152.00 L1024.00,870.83 C1010.82,954.80 956.17,1011.09 871.94,1024.00 L152.00,1024.00 L152.00,1023.00 C133.89,1022.25 120.00,1016.99 106.25,1011.90 C74.70,999.17 48.14,976.54 30.06,950.25 C16.51,930.19 5.61,907.08 1.50,877.50 C0.09,875.88 2.15,870.50 0.00,869.80 L-0.00,153.00 C13.80,68.27 67.04,13.80 151.56,-0.00 Z" fill="#2374FA" fill-rule="nonzero"/><path d="M258.75,155.17 L511.51,407.50 L512.67,407.50 C596.99,323.86 681.34,237.78 766.56,154.54 C835.50,108.08 907.01,193.88 852.56,252.25 L605.00,499.69 L605.00,501.28 L855.60,751.75 C905.36,813.46 830.91,892.92 764.75,845.36 L513.11,593.50 L511.26,593.50 L259.25,845.36 C195.38,891.79 120.52,817.37 166.64,753.75 L419.71,500.53 L168.13,248.75 C118.87,186.62 193.96,109.21 258.75,155.17 Z" fill="#F1110A" fill-rule="nonzero"/></svg>
