<svg version="1.1" xmlns="http://www.w3.org/2000/svg" viewBox="0 0 1024 1024" width="1024" height="1024"><path d="M121.00,1.00 C123.33,1.00 124.00,0.78 124.00,-0.00 L899.50,-0.00 C899.50,0.78 900.06,1.00 902.00,1.00 L907.50,1.15 C965.01,12.67 1002.76,48.31 1019.05,101.45 L1019.87,104.67 C1021.44,105.03 1021.00,108.11 1020.93,109.92 L1021.97,114.25 L1022.98,121.50 C1022.99,123.44 1023.23,124.00 1024.00,124.00 L1024.00,900.50 C1023.23,900.50 1023.00,901.06 1023.00,903.00 C1023.52,906.42 1022.31,909.17 1021.93,910.75 C1021.31,911.35 1020.77,912.98 1021.00,914.56 C1020.50,922.62 1017.07,929.00 1014.92,935.75 C1005.50,960.11 989.23,980.69 969.75,996.05 C969.51,994.77 968.59,997.84 968.69,996.86 C953.49,1007.53 936.61,1016.89 914.99,1021.03 L911.75,1021.91 L911.08,1021.97 L907.25,1022.52 L903.00,1023.05 C901.50,1023.01 900.92,1023.23 900.44,1024.00 L124.56,1024.00 C124.08,1023.23 123.17,1023.00 120.50,1023.00 C92.34,1019.98 70.41,1008.33 53.68,995.25 C26.77,974.30 5.52,943.63 1.00,902.00 C1.00,899.25 0.79,898.50 -0.00,898.50 L-0.00,125.00 C0.78,125.00 0.99,124.32 0.96,121.96 C6.28,77.27 28.81,47.70 57.25,25.96 C73.68,14.38 95.81,3.27 121.00,1.00 Z" fill="#2176FC" fill-rule="nonzero"/><g><path d="M723.75,337.95 L724.10,424.25 L486.37,649.75 C484.40,651.95 479.83,656.09 478.82,659.75 C469.81,681.78 460.08,705.54 452.39,728.84 C444.80,743.55 439.57,761.68 432.75,777.75 C430.76,788.66 436.63,796.15 448.81,794.59 C465.50,789.22 483.13,784.34 499.25,778.49 C522.47,771.82 547.85,763.57 570.75,756.24 L577.01,752.29 L723.78,615.39 L723.62,785.75 C717.52,824.00 693.86,848.91 655.33,854.50 L260.07,854.50 C222.46,848.76 197.53,822.74 192.50,784.40 L192.50,218.25 C195.32,181.05 225.77,150.60 263.25,148.01 L532.40,148.02 L532.85,148.75 C530.95,199.62 532.42,257.03 532.10,308.75 C533.71,325.09 543.76,334.89 558.75,337.95 L723.75,337.95 Z" fill="#FEFEFD" fill-rule="nonzero"/><g><path d="M731.86,417.25 L825.75,519.41 L723.78,615.39 L577.01,752.29 L570.75,756.24 C540.23,723.80 509.67,691.80 478.82,659.75 C479.83,656.09 484.40,651.95 486.37,649.75 L724.10,424.25 L731.86,417.25 Z" fill="#FEC901" fill-rule="nonzero"/><g><path d="M478.82,659.75 C509.67,691.80 540.23,723.80 570.75,756.24 C547.85,763.57 522.47,771.82 499.25,778.49 L452.39,728.84 C460.08,705.54 469.81,681.78 478.82,659.75 Z" fill="#FEDCA5" fill-rule="nonzero"/><path d="M452.39,728.84 L499.25,778.49 C483.13,784.34 465.50,789.22 448.81,794.59 C436.63,796.15 430.76,788.66 432.75,777.75 C439.57,761.68 444.80,743.55 452.39,728.84 Z" fill="#2176FC" fill-rule="nonzero"/></g></g><path d="M532.85,148.75 L723.75,337.95 L558.75,337.95 C543.76,334.89 533.71,325.09 532.10,308.75 C532.42,257.03 530.95,199.62 532.85,148.75 Z" fill="#A4C6FB" fill-rule="nonzero"/></g><g><path d="M856.92,490.25 L762.75,387.88 C782.90,371.86 804.49,332.30 842.46,355.08 C845.47,357.19 888.38,403.04 891.75,407.52 C904.60,424.59 902.03,446.17 888.83,460.69 L856.92,490.25 Z" fill="#FC4668" fill-rule="nonzero"/><path d="M762.75,387.88 L856.92,490.25 L825.75,519.41 L731.86,417.25 C741.31,407.76 753.00,397.04 762.75,387.88 Z" fill="#FEFEFD" fill-rule="nonzero"/></g><path d="M911.08,1021.97 C910.92,1023.60 908.13,1022.94 907.25,1022.52 L911.08,1021.97 Z" fill="#A4C6FB" fill-rule="nonzero"/><path d="M1021.97,114.25 L1020.93,109.92 C1022.49,109.95 1021.92,112.79 1021.97,114.25 Z" fill="#A4C6FB" fill-rule="nonzero"/><path d="M1021.93,910.75 C1021.98,913.22 1021.77,914.08 1021.00,914.56 C1020.77,912.98 1021.31,911.35 1021.93,910.75 Z" fill="#A4C6FB" fill-rule="nonzero"/><path d="M914.99,1021.03 C915.76,1022.78 912.54,1021.77 911.75,1021.91 L914.99,1021.03 Z" fill="#A4C6FB" fill-rule="nonzero"/><path d="M1019.87,104.67 L1019.05,101.45 C1020.04,101.34 1020.24,103.57 1019.87,104.67 Z" fill="#A4C6FB" fill-rule="nonzero"/><path d="M124.56,1024.00 L120.50,1024.00 L120.50,1023.00 C123.17,1023.00 124.08,1023.23 124.56,1024.00 Z" fill="#A4C6FB" fill-rule="nonzero"/><path d="M-0.00,902.00 L-0.00,898.50 C0.79,898.50 1.00,899.25 1.00,902.00 L-0.00,902.00 Z" fill="#A4C6FB" fill-rule="nonzero"/><path d="M121.00,1.00 L121.00,-0.00 L124.00,-0.00 C124.00,0.78 123.33,1.00 121.00,1.00 Z" fill="#A4C6FB" fill-rule="nonzero"/><path d="M0.96,121.96 C0.99,124.32 0.78,125.00 -0.00,125.00 L-0.00,122.56 L0.96,121.96 Z" fill="#A4C6FB" fill-rule="nonzero"/><path d="M899.50,-0.00 L902.00,-0.00 L902.00,1.00 C900.06,1.00 899.50,0.78 899.50,-0.00 Z" fill="#A4C6FB" fill-rule="nonzero"/><path d="M1024.00,121.50 L1024.00,124.00 C1023.23,124.00 1022.99,123.44 1022.98,121.50 L1024.00,121.50 Z" fill="#A4C6FB" fill-rule="nonzero"/><path d="M1023.00,903.00 C1023.00,901.06 1023.23,900.50 1024.00,900.50 L1024.00,903.00 L1023.00,903.00 Z" fill="#A4C6FB" fill-rule="nonzero"/><path d="M903.00,1023.05 L903.00,1024.00 L900.44,1024.00 C900.92,1023.23 901.50,1023.01 903.00,1023.05 Z" fill="#A4C6FB" fill-rule="nonzero"/></svg>
