<svg version="1.1" xmlns="http://www.w3.org/2000/svg" viewBox="0 0 1001 1001" width="1024" height="1024"><path d="M164.99,1.08 C171.59,0.96 173.50,0.71 173.50,-0.00 L829.00,-0.00 C829.00,0.80 830.11,1.00 834.50,0.98 C842.64,1.26 845.00,1.49 845.00,1.68 C845.00,1.86 845.62,2.01 847.75,2.01 C848.36,2.78 849.99,3.19 851.56,3.00 L853.75,3.09 L857.07,4.10 L858.94,4.00 C859.42,4.78 860.11,4.98 862.03,4.89 L867.45,6.02 C867.92,6.78 868.51,6.98 870.04,6.92 L874.85,7.93 C875.28,9.76 877.98,9.42 879.50,9.97 C887.89,12.28 895.93,15.59 902.75,19.60 L903.25,19.87 L905.25,20.94 L908.16,22.59 C924.78,30.93 939.83,43.16 952.25,56.67 L952.50,57.00 L953.17,57.75 L955.19,59.75 C970.47,76.63 983.91,99.42 992.10,124.44 C992.02,126.38 992.23,127.08 993.01,127.56 L994.10,131.45 C994.02,133.43 994.23,134.00 995.00,134.00 L994.90,135.93 L995.88,139.25 L996.37,141.80 L996.72,143.78 C996.91,144.86 997.28,145.96 997.54,146.22 C997.80,146.49 998.01,147.61 998.01,150.75 C997.88,152.63 997.97,155.07 998.94,155.75 C999.27,160.31 1000.73,167.71 999.75,173.50 L1000.14,825.47 L999.69,834.25 L998.96,841.25 L998.99,843.25 C998.08,843.88 997.85,845.86 998.00,847.56 L997.99,849.25 C997.27,849.92 996.81,851.22 997.00,853.00 L997.00,855.44 C996.23,855.92 996.00,856.51 996.00,858.06 C981.07,923.89 939.16,967.55 881.75,989.77 C881.53,989.39 878.93,989.60 879.55,991.09 L878.16,991.00 L875.84,992.00 L875.16,992.00 L872.84,993.00 L872.25,992.96 L869.25,993.52 L868.06,993.98 C866.51,994.00 865.92,994.23 865.44,995.00 L864.04,994.89 C863.55,993.61 860.84,995.69 860.25,995.97 L859.56,996.00 C857.86,995.85 855.88,996.08 855.25,996.99 L854.06,997.00 C852.12,997.00 851.42,997.23 850.94,998.00 L848.59,997.91 L843.25,998.90 L841.04,998.96 C841.32,998.13 837.90,999.05 837.75,999.61 L827.20,999.78 L174.32,999.86 L156.75,999.01 C156.14,998.20 154.51,997.82 152.94,998.00 L149.56,998.00 C149.08,997.23 148.49,997.01 146.96,997.03 C144.19,997.64 141.67,995.98 140.23,996.01 C140.05,995.15 137.83,994.36 137.25,995.47 L135.55,994.95 C135.08,994.21 134.49,994.01 132.95,994.06 C95.22,983.59 65.97,963.68 43.81,937.25 L41.80,934.75 L39.42,932.49 C39.97,930.66 38.81,929.59 37.25,929.26 L36.75,928.76 C24.54,912.84 13.17,891.64 6.94,868.55 C6.99,867.01 6.79,866.42 6.05,865.95 L3.96,856.25 C4.23,854.61 3.80,852.87 3.01,852.25 C2.35,847.74 0.83,841.83 1.00,834.50 C1.00,830.08 0.80,829.00 -0.00,829.00 L-0.00,172.00 C0.81,172.00 1.00,170.67 1.00,165.00 C0.49,159.87 1.78,155.11 2.47,152.25 L3.12,148.75 C3.49,146.61 2.51,143.40 4.47,141.75 L5.07,138.76 C20.85,72.53 64.28,28.08 126.94,8.00 C128.49,8.00 129.08,7.77 129.56,7.00 L130.93,7.07 L133.84,6.07 C135.40,6.08 137.15,5.87 137.75,5.01 L138.76,5.07 L141.75,4.47 L143.45,4.05 C144.37,4.81 146.66,3.94 147.25,3.06 L149.00,3.03 L151.25,2.44 L155.96,1.97 L158.75,1.57 L164.99,1.08 Z" fill="#0B85FC" fill-rule="nonzero"/><g><path d="M520.25,181.56 C678.01,189.34 811.40,302.95 825.47,453.75 C844.55,658.18 647.59,810.73 435.25,773.97 C409.26,769.51 383.77,761.48 361.47,752.42 C319.15,769.70 277.09,788.16 235.76,806.50 C231.46,807.09 227.82,804.52 226.45,801.25 C233.01,759.69 244.11,719.94 250.50,677.46 C204.06,628.73 161.45,550.55 171.56,450.25 C187.43,292.64 337.03,172.52 520.25,181.56 Z" fill="#FEFEFD" fill-rule="nonzero"/><path d="M481.75,447.54 C514.86,448.12 533.89,441.75 543.75,469.25 C544.16,529.19 544.16,597.31 543.75,657.25 C539.97,668.84 532.83,676.53 520.75,679.49 L481.16,679.50 C468.51,676.22 459.85,667.53 457.96,654.25 L458.25,469.75 C461.94,457.85 469.35,450.34 481.75,447.54 Z" fill="#213F76" fill-rule="nonzero"/><path d="M536.88,297.40 C577.79,328.40 563.27,393.09 514.75,404.61 C463.76,416.71 422.65,360.63 449.44,315.01 C465.82,287.11 505.90,273.93 536.88,297.40 Z" fill="#213F76" fill-rule="nonzero"/></g><path d="M998.96,841.25 L999.69,834.25 C1000.18,835.52 1000.41,840.51 998.96,841.25 Z" fill="#A4C5F4" fill-rule="nonzero"/><path d="M864.04,994.89 C864.01,995.75 863.16,995.99 860.25,995.97 C860.84,995.69 863.55,993.61 864.04,994.89 Z" fill="#A4C5F4" fill-rule="nonzero"/><path d="M848.59,997.91 C848.43,999.64 844.91,998.91 843.25,998.90 L848.59,997.91 Z" fill="#A4C5F4" fill-rule="nonzero"/><path d="M147.25,3.06 C146.66,3.94 144.37,4.81 143.45,4.05 C143.92,3.24 144.78,3.01 147.25,3.06 Z" fill="#A4C5F4" fill-rule="nonzero"/><path d="M879.50,9.97 C877.98,9.42 875.28,9.76 874.85,7.93 C878.45,9.15 879.50,9.61 879.50,9.97 Z" fill="#A4C5F4" fill-rule="nonzero"/><path d="M998.94,155.75 C997.97,155.07 997.88,152.63 998.01,150.75 C999.05,151.44 999.16,153.89 998.94,155.75 Z" fill="#A4C5F4" fill-rule="nonzero"/><path d="M39.42,932.49 L37.25,929.26 C38.81,929.59 39.97,930.66 39.42,932.49 Z" fill="#A4C5F4" fill-rule="nonzero"/><path d="M998.99,843.25 C999.00,846.11 998.77,847.08 998.00,847.56 C997.85,845.86 998.08,843.88 998.99,843.25 Z" fill="#A4C5F4" fill-rule="nonzero"/><path d="M859.56,996.00 C859.08,996.78 858.11,997.00 855.25,996.99 C855.88,996.08 857.86,995.85 859.56,996.00 Z" fill="#A4C5F4" fill-rule="nonzero"/><path d="M841.04,998.96 C841.54,1001.16 838.16,999.43 837.75,999.61 C837.90,999.05 841.32,998.13 841.04,998.96 Z" fill="#A4C5F4" fill-rule="nonzero"/><path d="M997.99,849.25 C998.00,852.16 997.77,853.00 997.00,853.00 C996.81,851.22 997.27,849.92 997.99,849.25 Z" fill="#A4C5F4" fill-rule="nonzero"/><path d="M851.56,3.00 C849.99,3.19 848.36,2.78 847.75,2.01 C850.22,2.00 851.08,2.23 851.56,3.00 Z" fill="#A4C5F4" fill-rule="nonzero"/><path d="M862.03,4.89 C860.11,4.98 859.42,4.78 858.94,4.00 C861.31,4.00 862.01,4.20 862.03,4.89 Z" fill="#A4C5F4" fill-rule="nonzero"/><path d="M156.75,999.01 C154.28,999.00 153.42,998.77 152.94,998.00 C154.51,997.82 156.14,998.20 156.75,999.01 Z" fill="#A4C5F4" fill-rule="nonzero"/><path d="M137.75,5.01 C137.15,5.87 135.40,6.08 133.84,6.07 C134.28,5.03 136.21,4.89 137.75,5.01 Z" fill="#A4C5F4" fill-rule="nonzero"/><path d="M993.01,127.56 C992.23,127.08 992.02,126.38 992.10,124.44 C992.80,124.92 993.00,125.62 993.01,127.56 Z" fill="#A4C5F4" fill-rule="nonzero"/><path d="M3.12,148.75 L2.47,152.25 C1.49,151.65 1.93,148.89 3.12,148.75 Z" fill="#A4C5F4" fill-rule="nonzero"/><path d="M3.96,856.25 C3.21,855.63 2.80,853.90 3.01,852.25 C3.80,852.87 4.23,854.61 3.96,856.25 Z" fill="#A4C5F4" fill-rule="nonzero"/><path d="M854.06,997.00 C853.58,997.77 852.88,998.00 850.94,998.00 C851.42,997.23 852.12,997.00 854.06,997.00 Z" fill="#A4C5F4" fill-rule="nonzero"/><path d="M857.07,4.10 L853.75,3.09 C855.84,3.02 856.58,3.25 857.07,4.10 Z" fill="#A4C5F4" fill-rule="nonzero"/><path d="M995.00,134.00 C994.23,134.00 994.02,133.43 994.10,131.45 C994.80,131.92 995.00,132.50 995.00,134.00 Z" fill="#A4C5F4" fill-rule="nonzero"/><path d="M995.88,139.25 L994.90,135.93 C996.17,135.88 996.18,138.00 995.88,139.25 Z" fill="#A4C5F4" fill-rule="nonzero"/><path d="M140.23,996.01 L137.25,995.47 C137.83,994.36 140.05,995.15 140.23,996.01 Z" fill="#A4C5F4" fill-rule="nonzero"/><path d="M158.75,1.57 L155.96,1.97 C156.19,0.61 157.83,0.98 158.75,1.57 Z" fill="#A4C5F4" fill-rule="nonzero"/><path d="M151.25,2.44 L149.00,3.03 C148.36,1.23 151.09,2.03 151.25,2.44 Z" fill="#A4C5F4" fill-rule="nonzero"/><path d="M138.76,5.07 C138.98,4.11 141.14,3.38 141.75,4.47 L138.76,5.07 Z" fill="#A4C5F4" fill-rule="nonzero"/><path d="M133.84,6.07 L130.93,7.07 C131.42,6.24 132.07,6.01 133.84,6.07 Z" fill="#A4C5F4" fill-rule="nonzero"/><path d="M870.04,6.92 C868.51,6.98 867.92,6.78 867.45,6.02 C868.99,6.00 869.58,6.21 870.04,6.92 Z" fill="#A4C5F4" fill-rule="nonzero"/><path d="M129.56,7.00 C129.08,7.77 128.49,8.00 126.94,8.00 C127.42,7.22 128.01,7.00 129.56,7.00 Z" fill="#A4C5F4" fill-rule="nonzero"/><path d="M908.16,22.59 L905.25,20.94 C906.94,20.73 907.60,21.67 908.16,22.59 Z" fill="#A4C5F4" fill-rule="nonzero"/><path d="M5.07,138.76 L4.47,141.75 C3.38,141.14 4.11,138.98 5.07,138.76 Z" fill="#A4C5F4" fill-rule="nonzero"/><path d="M997.00,855.44 C997.00,856.99 996.77,857.58 996.00,858.06 C996.00,856.51 996.23,855.92 997.00,855.44 Z" fill="#A4C5F4" fill-rule="nonzero"/><path d="M6.94,868.55 C6.21,868.08 6.01,867.49 6.05,865.95 C6.79,866.42 6.99,867.01 6.94,868.55 Z" fill="#A4C5F4" fill-rule="nonzero"/><path d="M43.81,937.25 L41.80,934.75 L43.81,937.25 Z" fill="#A4C5F4" fill-rule="nonzero"/><path d="M135.55,994.95 C134.01,994.99 133.42,994.79 132.95,994.06 C134.49,994.01 135.08,994.21 135.55,994.95 Z" fill="#A4C5F4" fill-rule="nonzero"/><path d="M868.06,993.98 C867.58,994.77 866.99,995.00 865.44,995.00 C865.92,994.23 866.51,994.00 868.06,993.98 Z" fill="#A4C5F4" fill-rule="nonzero"/><path d="M149.56,998.00 C148.01,998.00 147.42,997.78 146.96,997.03 C148.49,997.01 149.08,997.23 149.56,998.00 Z" fill="#A4C5F4" fill-rule="nonzero"/><path d="M955.19,59.75 L953.17,57.75 L955.19,59.75 Z" fill="#A4C5F4" fill-rule="nonzero"/><path d="M879.55,991.09 C878.93,989.60 881.53,989.39 881.75,989.77 L879.55,991.09 Z" fill="#A4C5F4" fill-rule="nonzero"/><path d="M872.25,992.96 C871.82,993.45 869.79,994.77 869.25,993.52 L872.25,992.96 Z" fill="#A4C5F4" fill-rule="nonzero"/><path d="M878.16,991.00 L875.84,992.00 L878.16,991.00 Z" fill="#A4C5F4" fill-rule="nonzero"/><path d="M875.16,992.00 L872.84,993.00 L875.16,992.00 Z" fill="#A4C5F4" fill-rule="nonzero"/><path d="M905.25,20.94 L903.25,19.87 L905.25,20.94 Z" fill="#A4C5F4" fill-rule="nonzero"/><path d="M903.25,19.87 L902.75,19.60 L903.25,19.87 Z" fill="#A4C5F4" fill-rule="nonzero"/><path d="M952.50,57.00 L952.25,56.67 L952.50,57.00 Z" fill="#A4C5F4" fill-rule="nonzero"/><path d="M953.17,57.75 L952.50,57.00 L953.17,57.75 Z" fill="#A4C5F4" fill-rule="nonzero"/><path d="M37.25,929.26 L36.75,928.76 L37.25,929.26 Z" fill="#A4C5F4" fill-rule="nonzero"/><path d="M827.20,999.78 L826.44,1001.00 L175.06,1001.00 L174.32,999.86 L827.20,999.78 Z" fill="#A4C5F4" fill-rule="nonzero"/><path d="M1001.00,173.50 L1001.00,824.94 L1000.14,825.47 L999.75,173.50 L1001.00,173.50 Z" fill="#A4C5F4" fill-rule="nonzero"/><path d="M164.99,1.08 L165.00,-0.00 L173.50,-0.00 C173.50,0.71 171.59,0.96 164.99,1.08 Z" fill="#A4C5F4" fill-rule="nonzero"/><path d="M1.00,165.00 C1.00,170.67 0.81,172.00 -0.00,172.00 L-0.00,165.00 L1.00,165.00 Z" fill="#A4C5F4" fill-rule="nonzero"/><path d="M829.00,-0.00 L834.50,-0.00 L834.50,0.98 C830.11,1.00 829.00,0.80 829.00,-0.00 Z" fill="#A4C5F4" fill-rule="nonzero"/><path d="M-0.00,834.50 L-0.00,829.00 C0.80,829.00 1.00,830.08 1.00,834.50 L-0.00,834.50 Z" fill="#A4C5F4" fill-rule="nonzero"/></svg>
