<svg version="1.1" xmlns="http://www.w3.org/2000/svg" viewBox="0 0 1024 1024" width="1024" height="1024"><path d="M184.06,-0.00 L839.94,0.00 C935.33,13.12 1004.27,79.91 1021.53,170.75 C1022.56,171.08 1021.49,176.57 1022.47,177.75 C1023.41,177.46 1022.15,185.54 1024.00,184.50 L1024.00,839.00 C1014.60,906.63 982.83,951.67 939.25,985.15 C913.42,1003.32 882.19,1019.89 840.00,1023.00 L840.00,1024.00 L184.00,1024.00 L184.00,1023.00 C162.50,1021.99 145.43,1016.20 129.25,1009.94 C110.28,1002.19 91.28,990.76 76.61,978.68 C41.64,949.88 11.91,907.51 2.46,853.25 C2.14,849.30 0.59,843.79 1.00,838.00 L-0.00,838.00 L0.00,186.06 C2.88,167.49 6.61,147.38 12.87,133.25 C30.19,87.69 61.10,53.77 98.75,29.42 C122.13,14.85 150.32,4.36 184.06,-0.00 Z" fill="#2378FB" fill-rule="nonzero"/><path d="M621.25,222.39 C719.72,301.06 819.11,379.89 917.72,457.78 C924.10,464.64 924.49,476.02 917.96,483.49 L622.25,732.60 C607.19,741.72 590.80,732.82 589.02,716.25 L589.00,577.47 C359.08,556.29 219.38,653.07 161.09,812.80 C150.23,828.17 126.79,822.81 124.51,803.25 C128.38,609.49 234.75,460.31 366.16,394.32 C425.67,364.45 500.42,346.57 588.97,344.85 L589.25,235.20 C593.34,222.13 607.54,213.85 621.25,222.39 Z" fill="#26C849" fill-rule="nonzero"/></svg>
