<svg version="1.1" xmlns="http://www.w3.org/2000/svg" viewBox="0 0 1024 1024" width="1024" height="1024"><path d="M173.00,-0.00 L851.00,-0.00 L851.00,1.00 C939.79,10.74 1002.88,74.92 1020.55,155.75 C1022.11,159.94 1022.10,167.91 1023.25,173.50 C1023.30,173.74 1023.95,173.26 1024.00,173.50 L1023.96,849.75 C1010.65,944.74 945.22,1010.43 850.44,1024.00 L173.00,1024.00 L173.00,1023.00 C121.62,1017.99 84.85,995.13 57.25,967.64 C37.50,948.64 22.13,925.22 11.42,897.25 C7.61,885.82 3.09,871.90 1.47,857.25 C0.48,856.63 1.29,851.11 0.93,849.00 L-0.00,849.00 L-0.00,175.00 L0.92,175.00 C1.28,173.04 0.50,167.74 1.47,167.25 C4.92,141.13 13.21,118.93 23.93,100.25 C39.92,71.30 63.47,47.03 90.39,29.18 C102.27,22.10 115.02,15.65 128.75,10.42 C141.46,6.64 156.01,1.66 173.00,1.00 L173.00,-0.00 Z" fill="#2275FC" fill-rule="nonzero"/><path d="M877.21,283.25 L877.22,291.21 C876.52,303.79 872.02,313.98 866.25,322.25 C727.76,462.22 586.30,603.81 446.10,743.25 C427.85,756.18 403.04,754.53 386.37,740.76 L173.75,527.55 C131.58,475.77 193.93,404.27 250.25,445.64 L416.76,612.00 L418.20,612.00 L783.97,244.75 C820.94,212.91 873.79,237.36 877.21,283.25 Z" fill="#1AC831" fill-rule="nonzero"/><path d="M877.22,291.21 L877.21,283.25 L877.22,291.21 Z" fill="#101010" fill-rule="nonzero"/></svg>
