<svg version="1.1" xmlns="http://www.w3.org/2000/svg" viewBox="0 0 1024 1024" width="1024" height="1024"><path d="M134.44,1.00 C136.82,1.00 137.50,0.78 137.50,-0.00 L886.50,-0.00 C886.50,0.78 887.19,1.00 889.56,1.00 L895.44,1.00 C895.92,1.78 896.50,2.00 898.00,2.00 C934.56,7.88 960.82,24.62 981.75,46.24 C998.00,62.49 1011.91,85.46 1019.14,111.95 C1018.67,112.78 1019.11,114.67 1020.00,114.56 L1019.90,116.03 L1020.91,119.25 L1021.00,120.94 C1021.00,122.49 1021.23,123.08 1022.00,123.56 C1021.68,126.90 1023.37,129.56 1023.13,132.98 C1023.03,135.32 1023.23,136.00 1024.00,136.00 L1024.00,889.50 C1023.23,889.50 1023.00,890.06 1023.00,892.00 C1022.69,902.89 1019.05,914.76 1016.09,923.25 C1005.67,953.48 987.28,975.98 964.75,994.04 C946.24,1007.62 922.96,1020.11 893.06,1023.00 C890.68,1023.00 890.00,1023.22 890.00,1024.00 L135.00,1024.00 C135.00,1023.22 134.33,1023.00 132.00,1023.00 C119.24,1022.62 107.99,1018.67 97.25,1014.86 C57.15,999.14 25.09,968.07 9.43,926.75 L4.34,911.25 C3.55,912.97 4.48,905.74 3.57,907.25 C2.47,901.16 0.74,895.52 1.00,888.00 L-0.00,888.00 L-0.00,139.00 C0.78,139.00 1.00,138.32 0.98,136.00 C0.47,131.81 1.71,127.76 2.04,125.25 C2.84,124.64 3.23,122.60 2.95,120.96 C12.06,75.87 38.26,44.26 70.31,23.25 C87.87,12.26 109.66,2.71 134.44,1.00 Z" fill="#2077FC" fill-rule="nonzero"/><path d="M482.33,108.50 C482.34,108.51 484.50,110.81 484.50,110.81 L484.46,510.25 C416.95,618.68 348.18,726.87 279.32,833.99 C277.86,834.75 276.24,834.14 275.22,833.61 C187.25,765.27 110.20,641.50 122.56,476.25 C136.62,288.40 277.95,131.69 458.58,109.92 C460.81,109.65 480.71,107.92 482.33,108.50 Z" fill="#FEFEFD" fill-rule="nonzero"/><path d="M525.85,490.00 L525.59,485.75 L525.66,344.00 L525.66,293.50 L525.65,289.75 L525.85,254.25 L525.83,248.50 L525.83,105.00 C525.55,103.72 528.11,101.56 528.31,101.50 C714.66,104.53 847.09,231.45 885.25,382.43 L882.41,385.40 L588.75,472.05 C568.72,477.60 547.26,484.94 525.85,490.00 Z" fill="#FED001" fill-rule="nonzero"/><path d="M889.75,424.07 C891.15,423.92 894.02,423.97 894.92,424.99 C938.75,617.06 851.63,775.62 741.84,852.00 C739.48,852.44 737.72,849.96 737.14,849.25 L541.51,530.25 C541.12,528.08 542.79,526.60 543.75,526.13 L889.75,424.07 Z" fill="#36CD46" fill-rule="nonzero"/><path d="M503.97,555.50 L506.36,555.50 C572.55,659.48 638.09,764.94 703.00,870.24 L703.00,872.85 C603.25,935.75 468.60,944.00 353.75,888.44 C348.81,886.05 310.90,865.75 310.00,862.96 C309.99,862.93 309.97,860.63 310.00,860.45 C374.10,758.72 438.37,655.81 503.97,555.50 Z" fill="#FC5545" fill-rule="nonzero"/><path d="M525.83,105.00 L525.83,248.50 L525.83,105.00 Z" fill="#FEFEFD" fill-rule="nonzero"/><path d="M525.66,344.00 L525.66,293.50 L525.66,344.00 Z" fill="#FEFEFD" fill-rule="nonzero"/><path d="M525.85,254.25 L525.65,289.75 L525.85,254.25 Z" fill="#FEFEFD" fill-rule="nonzero"/><path d="M2.95,120.96 C3.23,122.60 2.84,124.64 2.04,125.25 C2.01,122.39 2.21,121.43 2.95,120.96 Z" fill="#FEFEFD" fill-rule="nonzero"/><path d="M1020.91,119.25 L1019.90,116.03 C1021.84,115.20 1020.75,118.39 1020.91,119.25 Z" fill="#FEFEFD" fill-rule="nonzero"/><path d="M898.00,2.00 C896.50,2.00 895.92,1.78 895.44,1.00 C897.42,1.00 898.00,1.23 898.00,2.00 Z" fill="#FEFEFD" fill-rule="nonzero"/><path d="M1020.00,114.56 C1019.11,114.67 1018.67,112.78 1019.14,111.95 C1019.81,111.99 1020.00,112.58 1020.00,114.56 Z" fill="#FEFEFD" fill-rule="nonzero"/><path d="M1022.00,123.56 C1021.23,123.08 1021.00,122.49 1021.00,120.94 C1021.77,121.42 1022.00,122.01 1022.00,123.56 Z" fill="#FEFEFD" fill-rule="nonzero"/><path d="M525.85,490.00 L525.59,485.75 L525.85,490.00 Z" fill="#FEFEFD" fill-rule="nonzero"/><path d="M1024.00,133.00 L1024.00,136.00 C1023.23,136.00 1023.03,135.32 1023.13,132.98 L1024.00,133.00 Z" fill="#FEFEFD" fill-rule="nonzero"/><path d="M0.98,136.00 C1.00,138.32 0.78,139.00 -0.00,139.00 L-0.00,136.00 L0.98,136.00 Z" fill="#FEFEFD" fill-rule="nonzero"/><path d="M135.00,1024.00 L132.00,1024.00 L132.00,1023.00 C134.33,1023.00 135.00,1023.22 135.00,1024.00 Z" fill="#FEFEFD" fill-rule="nonzero"/><path d="M134.44,1.00 L135.06,0.00 L137.50,-0.00 C137.50,0.78 136.82,1.00 134.44,1.00 Z" fill="#FEFEFD" fill-rule="nonzero"/><path d="M886.50,-0.00 L888.94,0.00 L889.56,1.00 C887.19,1.00 886.50,0.78 886.50,-0.00 Z" fill="#FEFEFD" fill-rule="nonzero"/><path d="M893.06,1023.00 L892.44,1024.00 L890.00,1024.00 C890.00,1023.22 890.68,1023.00 893.06,1023.00 Z" fill="#FEFEFD" fill-rule="nonzero"/><path d="M1023.00,892.00 C1023.00,890.06 1023.23,889.50 1024.00,889.50 L1024.00,892.00 L1023.00,892.00 Z" fill="#FEFEFD" fill-rule="nonzero"/></svg>
