<svg version="1.1" xmlns="http://www.w3.org/2000/svg" viewBox="0 0 1024 1024" width="1024" height="1024"><path d="M152.50,1.00 C154.83,1.00 155.50,0.78 155.50,-0.00 L866.94,0.00 C867.42,0.78 868.33,1.00 871.00,1.00 C877.50,1.00 879.00,1.19 879.00,1.50 C879.00,1.78 879.77,2.00 882.44,2.00 C882.92,2.78 883.51,3.00 885.06,3.00 C920.02,9.46 947.97,26.67 968.82,46.25 C993.08,68.73 1011.68,98.45 1020.45,135.25 C1019.39,135.84 1020.12,138.03 1021.04,138.23 L1021.00,139.94 C1020.80,141.51 1021.24,143.14 1021.98,143.75 L1023.11,152.48 C1023.02,155.98 1023.23,157.00 1024.00,157.00 L1024.00,868.50 C1023.23,868.50 1023.00,869.17 1023.00,871.50 L1022.99,874.25 C1022.08,874.88 1021.85,876.86 1022.00,878.56 C1019.28,902.33 1010.74,921.74 1000.85,938.75 C979.40,974.45 946.15,1003.45 902.25,1016.99 C892.77,1019.75 882.95,1023.00 872.00,1023.01 C870.06,1023.00 869.50,1023.23 869.50,1024.00 L155.50,1024.00 C156.26,1022.19 152.91,1023.23 152.48,1023.13 L142.75,1021.98 C142.13,1021.19 140.39,1020.80 138.75,1021.01 C125.74,1018.97 111.39,1013.86 101.25,1009.04 C53.50,987.08 14.43,943.18 3.00,885.06 C3.00,883.12 2.79,882.43 2.05,881.96 L1.57,877.75 C2.49,877.15 2.05,874.41 0.96,874.27 L1.00,870.00 C1.00,867.67 0.78,867.00 -0.00,867.00 L-0.00,157.00 C0.78,157.00 0.99,156.21 0.96,153.46 C0.37,149.20 2.04,146.16 2.01,142.55 C3.45,142.29 2.94,140.68 2.49,139.75 C11.77,94.25 36.88,59.67 67.29,35.75 C80.11,25.68 94.51,17.44 110.75,10.85 C122.23,6.70 136.55,1.98 152.50,1.00 Z" fill="#007CFD" fill-rule="nonzero"/><g><path d="M454.75,117.59 C457.18,117.24 565.36,117.13 568.25,117.51 C576.98,118.66 584.05,125.70 585.97,132.75 L599.99,224.18 C602.56,231.30 613.72,232.64 621.25,235.59 C628.75,238.54 637.90,242.52 645.75,246.09 C653.51,249.61 658.57,255.72 668.75,250.15 C691.77,233.70 714.87,217.05 737.47,200.46 C744.66,196.55 753.79,197.26 760.05,201.54 L838.53,279.25 C842.89,284.71 845.11,292.97 841.35,301.53 L788.94,376.54 C785.00,385.22 792.68,394.69 795.45,401.42 C797.24,405.76 803.25,423.07 805.50,424.91 C811.62,429.92 882.85,433.81 894.72,439.03 C898.91,440.88 904.89,446.57 906.25,452.25 C906.66,489.69 906.66,535.31 906.25,572.75 C903.86,579.56 899.04,584.81 893.23,586.90 C886.52,589.32 836.24,595.18 825.25,596.96 C817.61,598.19 811.65,597.62 808.53,603.50 C804.51,618.77 798.65,632.91 792.50,645.98 L792.50,652.29 C798.43,663.82 844.95,718.78 846.75,726.25 C848.06,731.67 846.24,739.54 844.15,742.80 C818.14,771.01 790.71,798.27 764.45,825.96 C758.05,830.19 750.07,831.24 742.25,827.40 C718.88,811.13 694.45,792.49 669.79,776.50 L663.12,776.50 C647.96,784.51 632.39,792.38 614.25,797.75 C605.98,801.60 606.74,808.29 605.04,818.25 C602.88,830.86 595.70,888.52 592.97,894.72 C591.01,899.16 584.86,905.43 578.75,906.75 L455.35,907.02 C446.83,906.05 439.74,899.55 437.61,892.75 C433.81,872.34 430.84,849.65 427.51,829.75 C420.51,788.02 425.36,802.68 386.25,784.93 C381.46,782.76 371.81,775.42 364.66,777.34 C359.44,778.73 294.83,829.43 287.75,831.18 C280.57,832.96 273.03,830.02 269.25,827.05 L187.16,744.75 C182.66,737.77 182.25,730.03 185.90,722.59 C190.81,713.98 232.27,653.69 232.99,649.75 C234.13,643.51 227.83,633.00 225.91,627.75 C213.20,592.83 224.39,600.71 181.75,594.52 C172.23,593.14 137.49,589.24 131.69,587.47 C125.55,585.60 118.85,579.43 117.25,572.75 L116.98,454.26 C118.56,446.26 125.15,439.46 132.81,437.59 L217.25,426.95 C224.89,425.00 225.19,417.37 227.82,411.25 C229.20,408.04 240.50,383.86 240.50,383.86 C240.59,383.41 240.67,378.96 240.50,377.97 C234.43,364.72 188.07,311.06 185.95,302.04 C184.48,295.84 186.53,288.66 189.13,284.75 L269.35,203.66 C273.96,198.47 285.33,197.71 291.75,201.00 L357.53,250.40 C359.46,251.38 363.32,252.70 367.01,252.00 C382.56,243.93 399.06,235.93 416.92,230.44 C419.62,228.60 423.04,224.59 423.94,221.73 C428.61,192.37 433.19,162.41 437.51,132.79 C439.38,125.90 446.56,118.78 454.75,117.59 Z" fill="#E5E5E5" fill-rule="nonzero"/><path d="M649.44,539.75 C639.39,594.33 596.13,638.21 542.75,649.44 C441.94,670.67 355.08,586.74 373.54,485.25 C383.62,429.84 427.96,385.19 482.75,374.60 C583.85,355.04 667.85,439.81 649.44,539.75 Z" fill="#007CFD" fill-rule="nonzero"/></g><path d="M1022.99,874.25 C1023.00,877.11 1022.77,878.08 1022.00,878.56 C1021.85,876.86 1022.08,874.88 1022.99,874.25 Z" fill="#E5E5E5" fill-rule="nonzero"/><path d="M1021.98,143.75 C1021.24,143.14 1020.80,141.51 1021.00,139.94 C1021.77,140.42 1022.00,141.28 1021.98,143.75 Z" fill="#E5E5E5" fill-rule="nonzero"/><path d="M1.57,877.75 L0.96,874.27 C2.05,874.41 2.49,877.15 1.57,877.75 Z" fill="#E5E5E5" fill-rule="nonzero"/><path d="M3.00,885.06 C2.23,884.58 2.01,883.88 2.05,881.96 C2.79,882.43 3.00,883.12 3.00,885.06 Z" fill="#E5E5E5" fill-rule="nonzero"/><path d="M142.75,1021.98 C141.11,1022.21 139.37,1021.81 138.75,1021.01 C140.39,1020.80 142.13,1021.19 142.75,1021.98 Z" fill="#E5E5E5" fill-rule="nonzero"/><path d="M1020.45,135.25 L1021.04,138.23 C1020.12,138.03 1019.39,135.84 1020.45,135.25 Z" fill="#E5E5E5" fill-rule="nonzero"/><path d="M885.06,3.00 C883.51,3.00 882.92,2.78 882.44,2.00 C883.99,2.00 884.58,2.23 885.06,3.00 Z" fill="#E5E5E5" fill-rule="nonzero"/><path d="M2.49,139.75 C2.94,140.68 3.45,142.29 2.01,142.55 L2.49,139.75 Z" fill="#E5E5E5" fill-rule="nonzero"/><path d="M1024.00,153.06 L1024.00,157.00 C1023.23,157.00 1023.02,155.98 1023.11,152.48 L1024.00,153.06 Z" fill="#E5E5E5" fill-rule="nonzero"/><path d="M866.94,0.00 L871.00,-0.00 L871.00,1.00 C868.33,1.00 867.42,0.78 866.94,0.00 Z" fill="#E5E5E5" fill-rule="nonzero"/><path d="M0.96,153.46 C0.99,156.21 0.78,157.00 -0.00,157.00 L0.00,154.06 L0.96,153.46 Z" fill="#E5E5E5" fill-rule="nonzero"/><path d="M152.50,1.00 L152.50,-0.00 L155.50,-0.00 C155.50,0.78 154.83,1.00 152.50,1.00 Z" fill="#E5E5E5" fill-rule="nonzero"/><path d="M-0.00,870.00 L-0.00,867.00 C0.78,867.00 1.00,867.67 1.00,870.00 L-0.00,870.00 Z" fill="#E5E5E5" fill-rule="nonzero"/><path d="M1023.00,871.50 C1023.00,869.17 1023.23,868.50 1024.00,868.50 L1024.00,871.50 L1023.00,871.50 Z" fill="#E5E5E5" fill-rule="nonzero"/><path d="M155.50,1024.00 L152.50,1024.00 L152.48,1023.13 C152.91,1023.23 156.26,1022.19 155.50,1024.00 Z" fill="#E5E5E5" fill-rule="nonzero"/><path d="M872.00,1023.01 L872.00,1024.00 L869.50,1024.00 C869.50,1023.23 870.06,1023.00 872.00,1023.01 Z" fill="#E5E5E5" fill-rule="nonzero"/></svg>
