<svg version="1.1" xmlns="http://www.w3.org/2000/svg" viewBox="0 0 1024 1024" width="1024" height="1024"><path d="M184.06,-0.00 L839.94,0.00 C923.77,10.82 985.07,64.83 1011.15,133.25 C1017.28,147.52 1021.11,167.58 1024.00,186.17 L1024.00,838.00 C1019.01,874.80 1007.86,905.47 990.98,930.25 C966.51,967.60 928.17,999.80 881.75,1014.83 C868.76,1018.50 856.22,1022.62 840.00,1023.00 L840.00,1024.00 L184.00,1024.00 L184.00,1023.00 C157.92,1021.56 137.72,1013.93 118.75,1005.37 C75.68,984.73 40.98,950.20 20.05,907.25 C9.39,885.11 5.23,866.89 -0.00,839.00 L-0.00,184.50 L1.00,184.50 C0.62,179.25 2.20,174.24 2.45,170.75 C13.58,111.88 44.52,70.11 83.25,40.22 C109.89,19.75 142.61,5.37 184.06,-0.00 Z" fill="#2378FB" fill-rule="nonzero"/><path d="M415.75,736.20 L411.51,736.21 C406.41,735.84 402.20,732.70 399.47,730.75 L106.91,484.32 C99.27,477.94 99.64,462.55 107.42,456.72 L403.33,221.89 C417.67,213.66 433.13,223.90 434.93,237.75 L435.00,344.33 L435.67,345.00 C641.58,348.62 762.92,439.16 839.58,572.75 C872.40,635.48 898.05,709.00 899.50,803.96 C897.17,822.71 873.06,827.83 863.08,813.13 C804.32,652.52 665.10,556.81 435.25,577.25 L434.75,719.75 C431.62,728.52 426.40,734.99 415.75,736.20 Z" fill="#26C849" fill-rule="nonzero"/><path d="M415.75,736.20 L411.51,736.21 L415.75,736.20 Z" fill="#101010" fill-rule="nonzero"/></svg>
