<svg version="1.1" xmlns="http://www.w3.org/2000/svg" viewBox="0 0 1024 1024" width="1024" height="1024"><path d="M186.08,-0.00 L836.75,0.02 C943.22,12.81 1010.55,81.74 1024.00,187.58 L1024.00,836.92 C1009.81,943.01 944.60,1009.63 838.50,1024.00 L186.20,1024.00 C80.19,1010.30 13.77,942.85 0.00,836.92 L-0.00,187.50 C13.71,81.25 80.15,13.81 186.08,-0.00 Z" fill="#0041AC" fill-rule="nonzero"/><g><path d="M221.75,154.47 C248.87,164.00 275.21,174.95 301.75,184.98 L673.41,185.00 C690.99,187.25 700.86,197.47 705.25,213.25 L705.51,415.57 C704.77,418.45 702.50,420.32 699.82,421.75 C699.47,421.86 659.36,422.49 656.25,422.04 C653.72,421.66 650.19,419.28 649.25,416.32 L648.75,256.75 C646.02,249.30 641.73,244.46 634.25,241.75 L425.29,241.49 C437.30,250.10 462.33,253.00 466.25,269.25 C466.67,442.02 466.67,622.98 466.25,795.75 C463.39,802.23 459.77,805.86 453.75,807.93 L217.69,866.00 C206.08,867.18 201.02,860.92 198.50,852.96 L198.50,168.59 C201.03,159.00 209.79,152.20 221.75,154.47 Z" fill="#FCFCFC" fill-rule="nonzero"/><path d="M420.75,501.75 C426.19,555.08 371.11,561.39 369.40,508.25 C372.72,468.12 411.74,461.83 420.75,501.75 Z" fill="#0041AC" fill-rule="nonzero"/></g><path d="M771.75,365.12 C816.78,409.82 865.03,455.45 910.01,500.89 C915.46,508.99 912.76,521.01 907.11,525.75 L772.37,658.50 C760.73,666.85 745.88,660.56 742.25,648.27 L741.75,578.20 C741.24,576.73 738.77,574.27 737.29,573.75 L539.23,573.25 C532.72,570.91 528.84,567.03 526.25,560.75 L525.98,465.09 C528.02,457.10 533.26,452.16 541.59,450.50 L736.75,450.50 C738.85,449.46 740.65,448.11 741.75,445.80 L742.25,376.25 C745.34,364.13 759.58,357.15 771.75,365.12 Z" fill="#6BC13F" fill-rule="nonzero"/><path d="M655.25,603.02 C655.78,602.91 697.36,602.68 699.04,603.00 C700.93,603.36 704.54,606.25 705.25,608.25 L705.54,799.75 C700.13,824.81 678.52,820.30 648.99,820.50 L649.25,608.17 C650.66,606.07 652.64,603.60 655.25,603.02 Z" fill="#FCFCFC" fill-rule="nonzero"/></svg>
