<svg version="1.1" xmlns="http://www.w3.org/2000/svg" viewBox="0 0 1024 1024" width="1024" height="1024"><path d="M190.00,1.00 C192.28,1.00 193.08,0.77 193.56,-0.00 L831.00,-0.00 C831.00,0.78 831.67,1.00 834.00,1.00 L839.93,0.90 C840.42,1.75 841.16,1.98 843.25,1.91 C845.56,1.64 849.91,2.87 851.75,3.14 L854.98,4.02 C867.96,5.93 879.56,10.18 890.47,14.08 C890.38,15.50 890.53,14.88 892.00,15.00 L892.50,15.00 L892.85,15.35 C953.13,41.39 996.09,86.91 1016.09,152.95 C1016.02,154.49 1016.22,155.08 1016.98,155.56 C1019.03,163.22 1021.70,172.15 1021.97,181.42 L1022.51,184.75 L1023.05,189.50 C1023.01,191.78 1023.23,192.58 1024.00,193.06 L1024.00,831.00 C1023.21,831.00 1023.00,831.76 1023.00,834.56 C1020.43,869.85 1007.05,901.49 992.09,925.25 C974.53,952.78 951.34,975.58 924.08,993.00 L923.75,993.04 C906.36,1003.55 886.69,1012.94 864.04,1018.16 C862.51,1018.04 861.91,1018.21 861.42,1018.91 C859.39,1019.76 857.96,1020.00 855.06,1020.00 C853.51,1020.00 852.93,1020.21 852.47,1020.93 L844.03,1022.06 L841.25,1022.52 L834.50,1023.04 C832.18,1023.01 831.50,1023.23 831.50,1024.00 L192.50,1024.00 C193.26,1022.20 189.90,1023.23 189.48,1023.14 C165.75,1021.35 144.31,1014.54 127.25,1007.15 C67.29,981.12 18.36,926.45 4.00,855.06 C4.00,853.12 3.79,852.42 3.05,851.96 C2.34,845.80 0.55,840.10 1.00,832.50 L-0.00,832.50 L-0.00,195.00 C0.78,195.00 1.00,194.10 1.00,191.00 L0.97,187.23 C2.36,187.09 2.29,182.98 1.58,182.25 L2.05,177.50 C3.78,178.00 2.71,176.20 3.00,175.00 L3.00,172.56 C3.77,172.08 3.99,171.38 3.97,169.46 C3.33,166.43 5.21,165.05 5.05,162.54 C5.79,162.08 5.98,161.49 5.90,159.96 C21.42,99.66 56.88,58.12 103.75,28.87 C126.61,15.25 154.95,3.68 190.00,1.00 Z" fill="#1D77FC" fill-rule="nonzero"/><path d="M235.37,537.00 C282.46,546.26 329.46,556.33 375.67,566.57 C406.08,577.95 406.05,628.75 367.25,630.59 L300.26,618.04 L299.37,618.93 C318.93,659.81 346.71,693.10 382.25,718.14 C531.50,822.13 714.98,726.57 744.58,573.75 C756.19,536.30 817.24,536.87 820.56,581.93 C799.25,712.51 695.08,817.69 564.75,837.42 C403.26,859.46 292.94,766.71 239.77,668.25 C237.51,686.64 235.90,707.48 233.93,726.75 C225.68,767.11 169.50,760.95 173.34,715.75 L185.61,575.75 C189.22,554.01 207.50,535.07 235.37,537.00 Z" fill="#FEFEFE" fill-rule="nonzero"/><path d="M783.01,357.00 L784.00,357.00 L789.95,297.75 C799.83,261.93 848.43,264.64 851.08,304.25 L836.97,454.25 C832.40,474.98 815.84,492.85 787.56,490.50 L648.75,461.98 C610.45,451.32 617.28,396.22 655.25,398.50 L724.00,410.05 L724.00,408.49 C696.81,349.15 643.92,298.33 578.00,278.03 C430.34,234.73 301.42,333.80 280.05,450.83 C267.70,492.11 200.27,484.90 204.50,437.98 C226.96,325.79 313.99,235.07 415.75,203.54 C587.89,153.17 725.84,246.54 783.01,357.00 Z" fill="#FEFEFE" fill-rule="nonzero"/><path d="M1.58,182.25 C2.29,182.98 2.36,187.09 0.97,187.23 L1.58,182.25 Z" fill="#FEFEFE" fill-rule="nonzero"/><path d="M854.98,4.02 L851.75,3.14 C854.27,3.03 855.00,3.23 854.98,4.02 Z" fill="#FEFEFE" fill-rule="nonzero"/><path d="M3.97,169.46 C3.99,171.38 3.77,172.08 3.00,172.56 C3.00,170.62 3.22,169.92 3.97,169.46 Z" fill="#FEFEFE" fill-rule="nonzero"/><path d="M3.00,175.00 C2.71,176.20 3.78,178.00 2.05,177.50 C2.01,175.56 2.23,175.00 3.00,175.00 Z" fill="#FEFEFE" fill-rule="nonzero"/><path d="M1022.51,184.75 L1021.97,181.42 C1023.54,181.63 1022.93,183.84 1022.51,184.75 Z" fill="#FEFEFE" fill-rule="nonzero"/><path d="M4.00,855.06 C3.23,854.58 3.01,853.88 3.05,851.96 C3.79,852.42 4.00,853.12 4.00,855.06 Z" fill="#FEFEFE" fill-rule="nonzero"/><path d="M843.25,1.91 C841.16,1.98 840.42,1.75 839.93,0.90 L843.25,1.91 Z" fill="#FEFEFE" fill-rule="nonzero"/><path d="M864.04,1018.16 C864.01,1018.81 863.42,1018.98 861.42,1018.91 C861.91,1018.21 862.51,1018.04 864.04,1018.16 Z" fill="#FEFEFE" fill-rule="nonzero"/><path d="M1016.98,155.56 C1016.22,155.08 1016.02,154.49 1016.09,152.95 C1016.80,153.42 1017.00,154.01 1016.98,155.56 Z" fill="#FEFEFE" fill-rule="nonzero"/><path d="M5.90,159.96 C5.98,161.49 5.79,162.08 5.05,162.54 C5.01,161.00 5.20,160.42 5.90,159.96 Z" fill="#FEFEFE" fill-rule="nonzero"/><path d="M855.06,1020.00 C854.58,1020.77 854.00,1020.98 852.47,1020.93 C852.93,1020.21 853.51,1020.00 855.06,1020.00 Z" fill="#FEFEFE" fill-rule="nonzero"/><path d="M844.03,1022.06 C843.85,1023.38 842.17,1022.94 841.25,1022.52 L844.03,1022.06 Z" fill="#FEFEFE" fill-rule="nonzero"/><path d="M892.00,15.00 C890.53,14.88 890.38,15.50 890.47,14.08 C891.10,14.15 892.42,13.34 892.00,15.00 Z" fill="#FEFEFE" fill-rule="nonzero"/><path d="M892.85,15.35 L892.50,15.00 L892.85,15.35 Z" fill="#FEFEFE" fill-rule="nonzero"/><path d="M1.00,191.00 C1.00,194.10 0.78,195.00 -0.00,195.00 L-0.00,191.00 L1.00,191.00 Z" fill="#FEFEFE" fill-rule="nonzero"/><path d="M190.00,1.00 L190.00,-0.00 L193.56,-0.00 C193.08,0.77 192.28,1.00 190.00,1.00 Z" fill="#FEFEFE" fill-rule="nonzero"/><path d="M1024.00,189.50 L1024.00,193.06 C1023.23,192.58 1023.01,191.78 1023.05,189.50 L1024.00,189.50 Z" fill="#FEFEFE" fill-rule="nonzero"/><path d="M1023.00,834.56 C1023.00,831.76 1023.21,831.00 1024.00,831.00 L1024.00,833.94 L1023.00,834.56 Z" fill="#FEFEFE" fill-rule="nonzero"/><path d="M831.00,-0.00 L834.00,-0.00 L834.00,1.00 C831.67,1.00 831.00,0.78 831.00,-0.00 Z" fill="#FEFEFE" fill-rule="nonzero"/><path d="M192.50,1024.00 L189.50,1024.00 L189.48,1023.14 C189.90,1023.23 193.26,1022.20 192.50,1024.00 Z" fill="#FEFEFE" fill-rule="nonzero"/><path d="M834.50,1023.04 L834.50,1024.00 L831.50,1024.00 C831.50,1023.23 832.18,1023.01 834.50,1023.04 Z" fill="#FEFEFE" fill-rule="nonzero"/></svg>
