<svg version="1.1" xmlns="http://www.w3.org/2000/svg" viewBox="0 0 1024 1024" width="1024" height="1024"><path d="M202.00,-0.00 L821.44,0.00 C864.53,5.71 899.28,20.10 927.75,40.66 C970.45,71.09 1008.52,120.49 1020.54,182.75 C1021.98,187.54 1021.86,197.24 1024.00,202.17 L1024.00,822.00 C1021.14,836.98 1018.65,853.18 1014.01,866.25 C991.96,933.11 944.00,983.46 880.75,1008.91 C863.46,1015.77 844.82,1021.64 822.00,1023.00 L822.00,1024.00 L202.56,1024.00 C119.52,1012.55 61.05,967.57 27.39,906.75 C14.78,883.20 3.10,855.29 1.00,820.00 L-0.00,820.00 L-0.00,203.56 C2.58,189.16 4.49,173.21 8.95,160.75 C24.41,109.68 56.99,68.94 95.25,41.22 C108.50,31.75 122.58,23.32 138.75,16.89 C156.20,9.46 177.47,2.57 202.00,1.00 L202.00,-0.00 Z" fill="#247AFC" fill-rule="nonzero"/><path d="M210.75,447.60 L812.93,447.50 C890.46,457.47 889.32,568.17 811.62,576.50 L211.18,576.50 C134.54,566.40 134.21,458.08 210.75,447.60 Z" fill="#FE151B" fill-rule="nonzero"/></svg>
