<svg version="1.1" xmlns="http://www.w3.org/2000/svg" viewBox="0 0 1024 1024" width="1024" height="1024"><path d="M163.06,0.00 L862.80,0.00 C862.07,1.26 870.80,1.77 871.00,1.65 C871.00,1.65 871.00,0.00 871.00,-0.00 L872.72,0.00 C872.83,1.44 871.17,0.56 871.28,2.00 C886.34,3.22 898.75,7.64 910.75,12.13 C928.06,18.99 944.60,29.37 958.60,40.75 C991.40,67.76 1016.29,106.07 1024.00,159.17 L1024.00,865.00 C1010.63,952.52 953.83,1008.93 868.00,1024.00 L160.06,1024.00 C75.44,1012.29 15.31,953.77 1.47,871.25 C0.06,872.40 2.22,862.61 -0.00,864.00 L-0.00,160.00 C3.28,143.79 5.94,127.01 12.01,113.75 C26.28,77.53 52.49,48.47 82.26,28.25 C104.49,13.93 130.53,3.70 163.06,0.00 Z" fill="#237AFC" fill-rule="nonzero"/><path d="M638.43,269.55 C712.06,339.87 785.88,412.67 858.75,482.92 C874.21,501.16 873.54,523.81 858.45,541.75 C787.14,614.13 715.00,688.59 642.75,761.10 C588.76,802.96 525.93,735.19 572.75,686.62 L685.50,567.90 L685.50,566.50 L201.55,566.50 C135.50,557.75 135.95,466.70 201.25,457.50 L685.00,457.50 L685.00,456.37 L568.52,340.42 C530.42,292.93 589.11,234.24 638.43,269.55 Z" fill="#4CBD26" fill-rule="nonzero"/></svg>
