<svg version="1.1" xmlns="http://www.w3.org/2000/svg" viewBox="0 0 1024 1024" width="1024" height="1024"><path d="M183.49,0.93 C186.17,0.98 187.08,0.77 187.56,-0.00 L834.94,0.00 C835.14,1.66 838.96,0.85 840.52,0.93 C847.14,0.92 853.66,2.32 859.45,3.01 C859.92,3.78 860.51,4.00 862.06,4.00 C901.00,11.22 931.96,29.87 955.87,51.25 C988.64,81.50 1014.47,120.43 1021.97,175.42 L1022.40,179.25 L1022.98,184.00 C1022.99,186.33 1023.23,187.00 1024.00,187.00 L1024.00,837.00 C1023.22,837.00 1023.00,837.67 1023.00,840.00 C1021.17,870.34 1011.37,894.54 1001.09,915.25 C970.44,969.69 924.26,1010.48 851.01,1022.13 C849.98,1021.90 846.82,1021.70 846.96,1022.96 L841.51,1023.25 C842.22,1023.13 838.12,1022.23 839.00,1024.00 L186.00,1024.00 C186.00,1023.23 185.32,1023.01 182.99,1023.06 L171.75,1021.99 C171.03,1021.43 168.47,1020.70 167.97,1021.60 C127.30,1014.38 94.32,996.36 69.71,974.25 C37.32,945.33 11.83,907.84 3.10,856.09 L2.14,851.75 C1.80,848.32 0.83,843.73 1.00,839.00 C1.00,836.67 0.78,836.00 -0.00,836.00 L-0.00,189.00 C0.78,189.00 1.00,187.97 1.00,184.44 C1.58,179.10 1.83,170.90 3.02,166.75 C3.53,166.30 4.76,163.92 3.53,163.25 L5.41,154.75 L12.45,132.25 C32.53,78.26 75.14,35.23 127.32,14.04 C139.07,9.31 152.77,4.85 166.91,3.08 L172.75,2.08 L183.49,0.93 Z" fill="#2078FC" fill-rule="nonzero"/><g><path d="M328.25,193.50 L328.07,376.25 C331.16,383.35 334.88,388.09 342.25,390.75 L649.75,391.00 C658.13,389.11 662.11,383.66 665.47,376.25 L665.51,193.50 L708.75,193.50 L714.25,195.75 L819.43,300.25 C820.59,302.19 822.84,305.52 822.67,309.50 L822.72,759.75 C821.73,788.19 799.91,809.27 773.25,811.50 L735.75,811.50 C736.14,727.29 736.24,636.50 735.66,552.75 C731.93,535.69 721.14,525.14 703.25,522.55 L317.75,522.75 C301.25,526.61 291.10,536.80 288.00,553.75 L288.00,811.50 L252.25,811.50 C223.15,809.42 205.93,790.69 200.83,764.36 L200.83,670.00 L200.82,308.25 L200.96,237.75 C207.73,213.24 222.76,197.73 249.20,193.50 L328.25,193.50 Z" fill="#FEFEFE" fill-rule="nonzero"/><g><path d="M288.00,811.50 L288.00,553.75 C291.10,536.80 301.25,526.61 317.75,522.75 L703.25,522.55 C721.14,525.14 731.93,535.69 735.66,552.75 C736.24,636.50 736.14,727.29 735.75,811.50 L288.00,811.50 Z" fill="#2C3B4E" fill-rule="nonzero"/><g><path d="M348.75,569.10 L676.75,569.25 C682.33,571.16 685.57,574.70 687.50,579.99 L687.48,757.25 C685.70,762.42 682.05,765.76 676.75,767.75 C569.65,768.17 454.35,768.17 347.25,767.75 C341.66,765.79 338.59,762.46 336.25,757.25 C335.84,700.81 335.84,636.19 336.25,579.75 C338.37,574.29 342.66,570.04 348.75,569.10 Z" fill="#FEFEFE" fill-rule="nonzero"/><path d="M377.30,709.75 L647.75,709.96 C658.93,711.92 660.57,726.38 649.82,731.25 L375.33,731.51 C362.98,727.53 364.08,711.24 377.30,709.75 Z" fill="#2C3B4E" fill-rule="nonzero"/><path d="M374.66,605.00 L649.04,605.00 C660.33,608.91 659.57,624.32 647.63,626.50 L376.25,626.49 C364.43,624.76 363.66,608.31 374.66,605.00 Z" fill="#2C3B4E" fill-rule="nonzero"/><path d="M374.25,657.54 L648.93,657.50 C659.76,661.01 659.62,674.87 649.04,678.50 L374.20,678.50 C364.27,674.17 364.03,661.67 374.25,657.54 Z" fill="#2C3B4E" fill-rule="nonzero"/></g></g><path d="M665.51,193.50 L665.47,376.25 C662.11,383.66 658.13,389.11 649.75,391.00 L342.25,390.75 C334.88,388.09 331.16,383.35 328.07,376.25 L328.25,193.50 L665.51,193.50 Z" fill="#2C3B4E" fill-rule="nonzero"/></g><path d="M822.72,759.75 L822.67,309.50 L822.72,759.75 Z" fill="#92A4BF" fill-rule="nonzero"/><path d="M200.82,308.25 L200.83,670.00 L200.82,308.25 Z" fill="#92A4BF" fill-rule="nonzero"/><path d="M172.75,2.08 L166.91,3.08 C167.12,1.25 170.99,2.19 172.75,2.08 Z" fill="#92A4BF" fill-rule="nonzero"/><path d="M851.01,1022.13 C850.57,1022.80 849.66,1022.99 846.96,1022.96 C846.82,1021.70 849.98,1021.90 851.01,1022.13 Z" fill="#92A4BF" fill-rule="nonzero"/><path d="M1022.40,179.25 L1021.97,175.42 C1024.19,176.01 1022.38,179.12 1022.40,179.25 Z" fill="#92A4BF" fill-rule="nonzero"/><path d="M3.10,856.09 C1.58,856.09 1.93,853.16 2.14,851.75 L3.10,856.09 Z" fill="#92A4BF" fill-rule="nonzero"/><path d="M3.53,163.25 C4.76,163.92 3.53,166.30 3.02,166.75 L3.53,163.25 Z" fill="#92A4BF" fill-rule="nonzero"/><path d="M171.75,1021.99 L167.97,1021.60 C168.47,1020.70 171.03,1021.43 171.75,1021.99 Z" fill="#92A4BF" fill-rule="nonzero"/><path d="M862.06,4.00 C860.51,4.00 859.92,3.78 859.45,3.01 C860.99,3.00 861.58,3.23 862.06,4.00 Z" fill="#92A4BF" fill-rule="nonzero"/><path d="M834.94,0.00 L839.94,0.00 L840.52,0.93 C838.96,0.85 835.14,1.66 834.94,0.00 Z" fill="#92A4BF" fill-rule="nonzero"/><path d="M1.00,184.44 C1.00,187.97 0.78,189.00 -0.00,189.00 L-0.00,185.06 L1.00,184.44 Z" fill="#92A4BF" fill-rule="nonzero"/><path d="M183.49,0.93 L183.50,-0.00 L187.56,-0.00 C187.08,0.77 186.17,0.98 183.49,0.93 Z" fill="#92A4BF" fill-rule="nonzero"/><path d="M1024.00,184.00 L1024.00,187.00 C1023.23,187.00 1022.99,186.33 1022.98,184.00 L1024.00,184.00 Z" fill="#92A4BF" fill-rule="nonzero"/><path d="M-0.00,839.00 L-0.00,836.00 C0.78,836.00 1.00,836.67 1.00,839.00 L-0.00,839.00 Z" fill="#92A4BF" fill-rule="nonzero"/><path d="M1023.00,840.00 C1023.00,837.67 1023.22,837.00 1024.00,837.00 L1024.00,840.00 L1023.00,840.00 Z" fill="#92A4BF" fill-rule="nonzero"/><path d="M186.00,1024.00 L183.00,1024.00 L182.99,1023.06 C185.32,1023.01 186.00,1023.23 186.00,1024.00 Z" fill="#92A4BF" fill-rule="nonzero"/><path d="M841.51,1023.25 L841.50,1024.00 L839.00,1024.00 C838.12,1022.23 842.22,1023.13 841.51,1023.25 Z" fill="#92A4BF" fill-rule="nonzero"/></svg>
