<svg version="1.1" xmlns="http://www.w3.org/2000/svg" viewBox="0 0 1024 1024" width="1024" height="1024"><path d="M138.00,1.00 C140.75,1.00 141.50,0.79 141.50,-0.00 L881.50,-0.00 C881.50,0.78 882.41,1.00 885.56,1.00 L891.04,0.90 C891.01,1.75 891.51,1.98 893.25,1.92 L895.25,2.01 C895.92,2.73 897.22,3.19 899.00,3.00 C930.12,9.05 953.73,22.96 973.25,40.67 C993.40,58.79 1010.73,84.04 1019.00,114.92 L1019.88,118.25 C1019.97,119.67 1021.60,121.69 1021.03,124.50 C1021.01,126.39 1021.23,127.08 1022.00,127.56 L1021.97,130.00 L1022.51,132.75 L1023.05,136.46 C1023.01,139.20 1023.23,140.00 1024.00,140.00 L1024.00,885.00 C1023.23,885.00 1023.01,885.57 1023.03,887.54 C1023.10,891.77 1022.35,894.19 1021.97,897.25 C1021.24,897.86 1020.80,899.49 1021.00,901.06 C1009.33,958.57 969.60,999.99 917.54,1017.07 C912.49,1018.39 907.23,1020.84 901.03,1021.14 C899.50,1021.03 898.92,1021.23 898.44,1022.00 C894.97,1022.74 892.18,1023.19 887.00,1023.02 C884.26,1023.00 883.50,1023.22 883.50,1024.00 L140.00,1024.00 C140.00,1023.23 139.44,1023.00 137.50,1023.00 L133.06,1023.00 C133.17,1021.78 130.46,1021.84 129.48,1022.13 C85.49,1015.31 54.40,992.14 32.23,964.75 C24.03,954.29 16.96,942.18 11.51,929.58 C6.61,916.56 1.58,903.03 1.00,885.50 C1.00,883.17 0.78,882.50 -0.00,882.50 L-0.00,142.00 C0.78,142.00 1.00,141.21 1.00,138.50 L1.00,135.06 C1.77,134.58 2.00,133.67 2.00,131.00 L1.96,127.58 C3.49,127.40 2.75,125.64 2.34,125.11 L3.00,124.50 C3.33,117.96 5.52,112.95 6.99,107.75 C21.44,63.33 55.30,27.78 97.25,11.06 C109.49,6.49 122.03,1.92 138.00,1.00 Z" fill="#2174FB" fill-rule="nonzero"/><g><path d="M527.75,105.61 L533.75,105.89 C701.12,116.29 823.19,223.60 877.01,347.41 C993.96,630.48 793.75,906.09 526.25,917.18 L518.75,917.38 L504.25,917.38 L496.75,917.20 C251.59,906.62 51.90,668.19 130.47,392.72 C174.65,244.36 309.03,116.88 490.75,105.90 L496.25,105.60 L527.75,105.61 Z" fill="#FA7E01" fill-rule="nonzero"/><path d="M581.14,275.25 C579.02,374.13 576.73,476.71 574.04,574.75 C560.86,648.10 461.08,646.50 449.59,573.75 C447.21,474.25 444.18,371.37 442.84,273.25 C453.82,190.18 572.32,190.93 581.14,275.25 Z" fill="#FEFDFC" fill-rule="nonzero"/><path d="M522.75,670.54 C586.03,680.16 601.50,765.75 549.75,799.36 C497.22,833.48 429.57,786.19 445.11,721.75 C452.18,692.42 482.58,664.44 522.75,670.54 Z" fill="#FEFDFC" fill-rule="nonzero"/></g><path d="M2.00,131.00 C2.00,133.67 1.77,134.58 1.00,135.06 C1.00,131.91 1.23,131.00 2.00,131.00 Z" fill="#FEFDFC" fill-rule="nonzero"/><path d="M526.25,917.18 L518.75,917.38 L526.25,917.18 Z" fill="#FEFDFC" fill-rule="nonzero"/><path d="M504.25,917.38 L496.75,917.20 L504.25,917.38 Z" fill="#FEFDFC" fill-rule="nonzero"/><path d="M133.06,1023.00 C130.30,1023.00 129.49,1022.80 129.48,1022.13 C130.46,1021.84 133.17,1021.78 133.06,1023.00 Z" fill="#FEFDFC" fill-rule="nonzero"/><path d="M899.00,3.00 C897.22,3.19 895.92,2.73 895.25,2.01 C898.16,2.00 899.00,2.23 899.00,3.00 Z" fill="#FEFDFC" fill-rule="nonzero"/><path d="M533.75,105.89 L527.75,105.61 L533.75,105.89 Z" fill="#FEFDFC" fill-rule="nonzero"/><path d="M1022.00,127.56 C1021.23,127.08 1021.01,126.39 1021.03,124.50 C1021.78,124.50 1022.00,125.19 1022.00,127.56 Z" fill="#FEFDFC" fill-rule="nonzero"/><path d="M1021.97,897.25 C1021.99,899.72 1021.77,900.58 1021.00,901.06 C1020.80,899.49 1021.24,897.86 1021.97,897.25 Z" fill="#FEFDFC" fill-rule="nonzero"/><path d="M496.25,105.60 L490.75,105.90 L496.25,105.60 Z" fill="#FEFDFC" fill-rule="nonzero"/><path d="M1019.88,118.25 L1019.00,114.92 C1020.11,114.90 1020.20,117.03 1019.88,118.25 Z" fill="#FEFDFC" fill-rule="nonzero"/><path d="M1022.51,132.75 L1021.97,130.00 C1024.14,129.41 1022.49,132.38 1022.51,132.75 Z" fill="#FEFDFC" fill-rule="nonzero"/><path d="M901.03,1021.14 C901.01,1021.81 900.42,1022.00 898.44,1022.00 C898.92,1021.23 899.50,1021.03 901.03,1021.14 Z" fill="#FEFDFC" fill-rule="nonzero"/><path d="M893.25,1.92 C891.51,1.98 891.01,1.75 891.04,0.90 L893.25,1.92 Z" fill="#FEFDFC" fill-rule="nonzero"/><path d="M2.34,125.11 C2.75,125.64 3.49,127.40 1.96,127.58 L2.34,125.11 Z" fill="#FEFDFC" fill-rule="nonzero"/><path d="M3.00,124.50 L2.34,125.11 L3.00,124.50 Z" fill="#FEFDFC" fill-rule="nonzero"/><path d="M881.50,-0.00 L884.94,0.00 L885.56,1.00 C882.41,1.00 881.50,0.78 881.50,-0.00 Z" fill="#FEFDFC" fill-rule="nonzero"/><path d="M138.00,1.00 L138.00,-0.00 L141.50,-0.00 C141.50,0.79 140.75,1.00 138.00,1.00 Z" fill="#FEFDFC" fill-rule="nonzero"/><path d="M1.00,138.50 C1.00,141.21 0.78,142.00 -0.00,142.00 L-0.00,138.50 L1.00,138.50 Z" fill="#FEFDFC" fill-rule="nonzero"/><path d="M887.00,1023.02 L887.00,1024.00 L883.50,1024.00 C883.50,1023.22 884.26,1023.00 887.00,1023.02 Z" fill="#FEFDFC" fill-rule="nonzero"/><path d="M1024.00,137.06 L1024.00,140.00 C1023.23,140.00 1023.01,139.20 1023.05,136.46 L1024.00,137.06 Z" fill="#FEFDFC" fill-rule="nonzero"/><path d="M-0.00,885.50 L-0.00,882.50 C0.78,882.50 1.00,883.17 1.00,885.50 L-0.00,885.50 Z" fill="#FEFDFC" fill-rule="nonzero"/><path d="M140.00,1024.00 L137.50,1024.00 L137.50,1023.00 C139.44,1023.00 140.00,1023.23 140.00,1024.00 Z" fill="#FEFDFC" fill-rule="nonzero"/><path d="M1023.03,887.54 C1023.01,885.57 1023.23,885.00 1024.00,885.00 L1024.00,886.94 L1023.03,887.54 Z" fill="#FEFDFC" fill-rule="nonzero"/></svg>
